<svg id="Group_2414" data-name="Group 2414" xmlns="http://www.w3.org/2000/svg" xmlns:xlink="http://www.w3.org/1999/xlink" width="215.805" height="233.191" viewBox="0 0 215.805 233.191">
  <defs>
    <clipPath id="clip-path">
      <path id="Path_4283" data-name="Path 4283" d="M261.8,713.476c-4.525,3.016-13.875,4.022-14.881,4.022H242.9c-1.006,0-10.357-1.006-14.88-4.022s-13.069-9.049-17.594-18.75l-21.466,7.716c1.057,2.891,3.872,7.212,3.872,18.173,0,10.941-4.48,23.323-7.088,28.194-3,6-7.592,13.129-7.592,13.129s4.626,5.931,4.828,40.316-1.409,60.727-1.409,60.727c6.233,1,7.743.6,19.906,6.334s18.4,17.8,25.035,27.648c3.2,4.747,6.742,6.831,9.829,7.719a66.127,66.127,0,0,1,8.569-.277,66.1,66.1,0,0,1,8.569.277c3.089-.888,6.635-2.971,9.831-7.719,6.636-9.852,12.869-21.917,25.035-27.648s13.673-5.329,19.907-6.334c0,0-1.608-26.342-1.408-60.727s4.827-40.316,4.827-40.316-4.6-7.132-7.592-13.129c-2.608-4.871-7.088-17.253-7.088-28.194,0-10.96,2.816-15.282,3.871-18.173L279.4,694.726c-4.524,9.7-13.07,15.734-17.594,18.75" transform="translate(-178.153 -694.726)" fill="none"/>
    </clipPath>
  </defs>
  <g id="Group_2413" data-name="Group 2413" transform="translate(0 0)">
    <path id="Path_4250" data-name="Path 4250" d="M227.228,943.379c-6.636-9.852-12.87-21.917-25.035-27.648s-13.674-5.33-19.907-6.334c0,0-.829.527-.829,3.618s.6,5.279,1.508,5.43c7.666.8,16.414,2.01,24.055,9.852,7.34,7.534,13.661,22.809,21.7,26a24.543,24.543,0,0,1,4.34-2.277,16.4,16.4,0,0,1,4-.928c-3.087-.889-6.632-2.971-9.829-7.719" transform="translate(-137.724 -739.046)" fill="#ccc"/>
    <path id="Path_4251" data-name="Path 4251" d="M228.67,954.553l-.145-.057c-5.014-1.993-9.384-8.622-13.61-15.03-2.642-4-5.373-8.147-8.2-11.044-7.277-7.467-15.443-8.879-23.871-9.763-1.314-.219-1.778-3.1-1.778-5.73,0-3.166.87-3.811.97-3.873l.1-.062.114.018c.844.137,1.6.246,2.311.35,4.593.669,7.121,1.037,17.676,6.008,10.365,4.883,16.327,14.128,22.091,23.067,1.051,1.629,2.043,3.167,3.065,4.686,2.67,3.964,5.922,6.519,9.664,7.6l1.415.406-1.461.182a16.008,16.008,0,0,0-3.922.91,24.287,24.287,0,0,0-4.288,2.247ZM182.3,909.632c-.169.216-.63,1.015-.63,3.3,0,3.2.647,5.03,1.256,5.131,8.523.9,16.8,2.329,24.221,9.94,2.864,2.94,5.611,7.1,8.269,11.133,4.133,6.269,8.405,12.749,13.184,14.741a24.8,24.8,0,0,1,4.258-2.216,14.219,14.219,0,0,1,2.822-.762,18.809,18.809,0,0,1-8.791-7.436c-1.026-1.524-2.02-3.065-3.07-4.7-5.72-8.87-11.634-18.039-21.843-22.849-10.472-4.933-12.97-5.3-17.5-5.957-.67-.1-1.383-.2-2.171-.327" transform="translate(-137.64 -738.958)" fill="#ccc"/>
    <path id="Path_4252" data-name="Path 4252" d="M223.612,965.156v0a47.058,47.058,0,0,1,8.738-7.761c-8.038-3.2-14.36-18.471-21.7-26.006a29.637,29.637,0,0,0-12.4-7.689c3.2,5.075,14.952,20.675,25.365,41.454" transform="translate(-141.354 -742.138)" fill="#ccc"/>
    <path id="Path_4253" data-name="Path 4253" d="M223.347,965.533l-.2-.39a308.639,308.639,0,0,0-22.231-36.8c-1.361-1.982-2.434-3.547-3.12-4.634l-.444-.705.793.257a29.972,29.972,0,0,1,12.525,7.766c2.864,2.94,5.611,7.1,8.269,11.133,4.174,6.332,8.491,12.877,13.328,14.8l.539.214-.486.317a47.217,47.217,0,0,0-8.681,7.715Zm-24.57-41.419c.664,1.011,1.562,2.319,2.641,3.891a310.064,310.064,0,0,1,22.076,36.476,48.418,48.418,0,0,1,8.036-7.179c-4.8-2.227-9.013-8.617-13.092-14.805-2.642-4-5.373-8.146-8.2-11.044a29.293,29.293,0,0,0-11.464-7.338" transform="translate(-141.161 -741.988)" fill="#ccc"/>
    <path id="Path_4254" data-name="Path 4254" d="M203.816,948.289c9.048,15.284,11.06,22.724,11.06,22.724s.016.024.049.066c1.991-2.556,3.808-4.7,5.472-6.517v0c-10.412-20.779-22.161-36.378-25.365-41.454a56.208,56.208,0,0,0-11.652-2.163c.9.152,11.385,12.064,20.435,27.347" transform="translate(-138.14 -741.542)" fill="#ccc"/>
    <path id="Path_4255" data-name="Path 4255" d="M214.907,971.483l-.237-.3c-.044-.055-.064-.087-.064-.087l-.042-.089c-.02-.074-2.111-7.589-11.027-22.647-8.94-15.1-19.208-26.806-20.246-27.208l.1-.593a56.576,56.576,0,0,1,11.714,2.176l.1.034.058.092c.679,1.078,1.751,2.638,3.108,4.615a309.106,309.106,0,0,1,22.271,36.867l.094.185-.141.154c-1.742,1.9-3.579,4.089-5.457,6.5ZM184.358,921.27c3.055,2.867,12.157,14.048,19.7,26.782,7.716,13.032,10.351,20.462,10.949,22.33,1.723-2.195,3.406-4.194,5.011-5.954a309.037,309.037,0,0,0-22.136-36.61c-1.322-1.927-2.374-3.459-3.061-4.542a52.68,52.68,0,0,0-10.459-2" transform="translate(-138.12 -741.459)" fill="#ccc"/>
    <path id="Path_4256" data-name="Path 4256" d="M285.989,692.469a12.269,12.269,0,0,0-2.891.164c-1.674,3.022-5.865,9.745-10.884,13.913a23.448,23.448,0,0,1-12.266,5.632,31.542,31.542,0,0,1-12.265,0,23.444,23.444,0,0,1-12.265-5.632c-5.02-4.167-9.211-10.891-10.883-13.913a12.285,12.285,0,0,0-2.892-.164c-1.206.152-2.311,1.762-2.311,1.762,4.525,9.7,13.069,15.734,17.593,18.749S250.8,717,251.806,717h4.021c1,0,10.356-1.006,14.88-4.023s13.07-9.048,17.594-18.749c0,0-1.105-1.61-2.311-1.762" transform="translate(-145.913 -692.133)" fill="#ccc"/>
    <path id="Path_4257" data-name="Path 4257" d="M255.73,717.221h-4.021c-.87,0-10.35-.94-15.048-4.073-3.532-2.354-12.913-8.609-17.7-18.874l-.073-.155.1-.142c.049-.071,1.2-1.724,2.525-1.889a11.92,11.92,0,0,1,2.968.164l.15.02.073.132c.832,1.5,5.252,9.209,10.812,13.827a22.633,22.633,0,0,0,11.359,5.417c.3.054.559.1.78.151a31.161,31.161,0,0,0,12.135,0c.22-.049.481-.1.778-.151a22.625,22.625,0,0,0,11.359-5.417c5.558-4.614,9.982-12.328,10.814-13.827l.073-.132.147-.02a12.016,12.016,0,0,1,2.971-.164c1.325.165,2.475,1.818,2.523,1.889l.1.142-.073.155c-4.786,10.264-14.17,16.52-17.7,18.874-4.7,3.133-14.177,4.073-15.047,4.073m-36.147-23.04C224.321,704.2,233.521,710.33,237,712.647c4.528,3.018,13.971,3.972,14.712,3.972h4.021c.74,0,10.184-.954,14.714-3.972,3.474-2.317,12.674-8.45,17.412-18.465a3.8,3.8,0,0,0-2-1.495,10.773,10.773,0,0,0-2.664.142c-1,1.79-5.389,9.306-10.88,13.867a23.188,23.188,0,0,1-11.637,5.547c-.289.052-.543.1-.756.146a31.767,31.767,0,0,1-12.4,0c-.214-.049-.467-.094-.756-.146a23.184,23.184,0,0,1-11.637-5.547c-5.5-4.564-9.879-12.076-10.882-13.866a10.74,10.74,0,0,0-2.662-.143,3.789,3.789,0,0,0-2,1.494" transform="translate(-145.817 -692.049)" fill="#ccc"/>
    <path id="Path_4258" data-name="Path 4258" d="M276.654,977.1c-3.72-4.827-12.367-7.541-19.808-7.541s-16.086,2.714-19.806,7.541a63.771,63.771,0,0,0-3.692,5.618c.114-.023.172-.038.172-.038s8.043,2.261,13.171,2.261H267c5.127,0,13.17-2.261,13.17-2.261s.06.015.174.038a63.943,63.943,0,0,0-3.692-5.618" transform="translate(-148.944 -752.054)" fill="#ccc"/>
    <path id="Path_4259" data-name="Path 4259" d="M266.832,985.162H246.523c-4.845,0-12.343-2.023-13.178-2.253l-.107.023-.675.14.356-.591a63.477,63.477,0,0,1,3.712-5.648c4.056-5.262,13.234-7.657,20.044-7.657s15.991,2.4,20.047,7.657a63.738,63.738,0,0,1,3.713,5.648l.355.591-.675-.14-.106-.023c-.835.23-8.333,2.253-13.178,2.253m-33.145-2.785c1.405.379,8.315,2.182,12.836,2.182h20.309c4.521,0,11.431-1.8,12.836-2.182a59.859,59.859,0,0,0-3.423-5.175c-3.933-5.1-12.9-7.423-19.569-7.423s-15.635,2.323-19.567,7.423a59.567,59.567,0,0,0-3.422,5.175" transform="translate(-148.775 -751.971)" fill="#ccc"/>
    <path id="Path_4260" data-name="Path 4260" d="M267.312,963.447c-3.72-1.507-10.456-1.206-12.569-1.206s-8.846-.3-12.566,1.206c-3.6,1.459-9.175,4.519-18.55,16.556a4.522,4.522,0,0,0,3.62,1.492,19.558,19.558,0,0,0,4-.364,63.946,63.946,0,0,1,3.692-5.618c3.72-4.827,12.367-7.542,19.806-7.542s16.088,2.714,19.808,7.542a63.935,63.935,0,0,1,3.692,5.618,19.569,19.569,0,0,0,4,.364A4.524,4.524,0,0,0,285.862,980c-9.375-12.036-14.951-15.1-18.55-16.556" transform="translate(-146.842 -750.466)" fill="#ccc"/>
    <path id="Path_4261" data-name="Path 4261" d="M282.137,981.712a19.667,19.667,0,0,1-4.063-.37l-.127-.027-.067-.11a62.67,62.67,0,0,0-3.673-5.592c-3.932-5.1-12.9-7.422-19.569-7.422s-15.635,2.322-19.566,7.422A62.873,62.873,0,0,0,231.4,981.2l-.067.11-.128.027a19.681,19.681,0,0,1-4.063.37,4.8,4.8,0,0,1-3.855-1.6l-.148-.186.146-.187c9.159-11.761,14.793-15.076,18.675-16.651,2.08-.843,5.323-1.253,9.916-1.253.689,0,1.312.008,1.829.014.369.006.685.01.933.01s.567,0,.936-.01c.519-.006,1.14-.014,1.83-.014,4.592,0,7.837.409,9.917,1.253,3.882,1.575,9.516,4.89,18.673,16.651l.147.187-.148.186a4.8,4.8,0,0,1-3.855,1.6m-3.808-.933a19.869,19.869,0,0,0,3.808.329,4.407,4.407,0,0,0,3.226-1.2c-8.979-11.485-14.477-14.726-18.27-16.263-2.006-.813-5.176-1.21-9.69-1.21-.687,0-1.306.01-1.821.016-.372.005-.69.009-.944.009s-.57,0-.941-.009c-.517-.006-1.135-.016-1.822-.016-4.515,0-7.684.4-9.689,1.21-3.792,1.537-9.291,4.776-18.271,16.263a4.412,4.412,0,0,0,3.227,1.2,19.88,19.88,0,0,0,3.808-.329,62.8,62.8,0,0,1,3.644-5.535c4.056-5.261,13.234-7.657,20.044-7.657s15.991,2.4,20.047,7.657a63.015,63.015,0,0,1,3.645,5.535" transform="translate(-146.736 -750.383)" fill="#ccc"/>
    <path id="Path_4262" data-name="Path 4262" d="M306.845,802.254c.2-34.385,4.826-40.316,4.826-40.316s-4.594-7.132-7.592-13.129c-2.608-4.871-7.088-17.254-7.088-28.195,0-10.959,2.815-15.281,3.871-18.172L279.4,694.726c-4.524,9.7-13.069,15.734-17.594,18.75s-13.875,4.022-14.88,4.022H242.9c-1.006,0-10.357-1.006-14.881-4.022s-13.069-9.049-17.594-18.75l-21.465,7.716c1.056,2.891,3.871,7.212,3.871,18.172,0,10.941-4.48,23.324-7.088,28.195-3,6-7.591,13.129-7.591,13.129s4.626,5.931,4.827,40.316-1.409,60.727-1.409,60.727c6.233,1,7.743.6,19.906,6.334s18.4,17.8,25.036,27.648c3.2,4.747,6.741,6.831,9.829,7.719a66.112,66.112,0,0,1,8.568-.277,66.1,66.1,0,0,1,8.569.277c3.089-.888,6.635-2.971,9.831-7.719,6.637-9.852,12.87-21.917,25.035-27.648s13.674-5.329,19.907-6.334c0,0-1.608-26.342-1.408-60.727" transform="translate(-137.01 -692.628)" fill="#ccc"/>
    <path id="Path_4263" data-name="Path 4263" d="M253.4,904.884l-.06-.009a47.379,47.379,0,0,0-5.793-.3c-.68,0-1.292.008-1.8.016-.368,0-.685.008-.936.008s-.566,0-.933-.008c-.513-.008-1.123-.016-1.805-.016a47.356,47.356,0,0,0-5.792.3l-.061.009-.058-.017c-3.884-1.117-7.247-3.754-10-7.839-1.026-1.524-2.019-3.065-3.07-4.7-5.72-8.869-11.634-18.039-21.843-22.849-10.472-4.933-12.97-5.3-17.5-5.957-.712-.1-1.473-.214-2.322-.351l-.269-.043.016-.273c.015-.263,1.606-26.727,1.407-60.707-.2-33.737-4.718-40.074-4.764-40.134l-.128-.168.114-.179c.045-.071,4.62-7.186,7.575-13.1,2.305-4.307,7.056-16.818,7.056-28.06,0-9.062-1.919-13.511-3.189-16.456-.261-.6-.484-1.12-.663-1.612l-.105-.286,22.01-7.911.117.249c4.714,10.111,13.994,16.3,17.489,18.627,4.528,3.018,13.971,3.971,14.712,3.971h4.021c.741,0,10.184-.953,14.714-3.971,3.493-2.329,12.774-8.517,17.488-18.627l.116-.249,22.01,7.911-.1.286c-.181.492-.4,1.012-.665,1.612-1.27,2.945-3.188,7.394-3.188,16.456,0,11.242,4.75,23.753,7.051,28.051,2.96,5.922,7.533,13.037,7.58,13.109l.116.179-.132.169c-.044.058-4.565,6.4-4.762,40.132-.2,33.98,1.39,60.443,1.408,60.707l.016.273-.27.043c-.849.137-1.611.248-2.322.351-4.535.661-7.033,1.024-17.506,5.957-10.209,4.81-16.123,13.981-21.842,22.851-1.052,1.63-2.045,3.17-3.071,4.694-2.751,4.087-6.116,6.723-10,7.839Zm-5.853-.911a48.1,48.1,0,0,1,5.8.3c3.718-1.086,6.949-3.635,9.607-7.579,1.022-1.518,2.013-3.056,3.062-4.685,5.766-8.94,11.727-18.185,22.093-23.068,10.555-4.972,13.083-5.339,17.676-6.009.633-.092,1.3-.19,2.041-.306-.167-2.9-1.579-28.323-1.391-60.473.183-31.389,4.011-39.1,4.768-40.32-.711-1.114-4.785-7.554-7.5-12.989-2.953-5.52-7.12-17.964-7.12-28.33,0-9.186,1.949-13.7,3.239-16.694.206-.478.388-.9.544-1.3L279.451,695c-4.82,10.116-14.08,16.289-17.582,18.625-4.7,3.133-14.178,4.073-15.048,4.073H242.8c-.87,0-10.35-.94-15.048-4.073-3.5-2.336-12.761-8.508-17.582-18.625l-20.92,7.52c.154.4.338.82.543,1.3,1.289,2.99,3.239,7.509,3.239,16.694,0,10.367-4.164,22.811-7.122,28.338-2.713,5.428-6.787,11.868-7.5,12.982.756,1.217,4.585,8.931,4.769,40.32.187,32.15-1.224,57.576-1.394,60.473.738.117,1.411.214,2.042.306,4.594.669,7.121,1.037,17.676,6.009C211.872,873.82,217.832,883.064,223.6,892c1.051,1.629,2.043,3.167,3.065,4.686,2.656,3.944,5.887,6.494,9.6,7.579a48.133,48.133,0,0,1,5.8-.3c.683,0,1.3.008,1.811.016.367,0,.679.009.927.009s.564,0,.929-.009c.514-.008,1.129-.016,1.811-.016" transform="translate(-136.908 -692.524)" fill="#ccc"/>
    <path id="Path_4264" data-name="Path 4264" d="M284.092,943.379c6.637-9.852,12.87-21.917,25.035-27.648s13.674-5.33,19.907-6.334c0,0,.829.527.829,3.618s-.6,5.279-1.507,5.43c-7.666.8-16.414,2.01-24.055,9.852-7.34,7.534-13.66,22.809-21.7,26a24.487,24.487,0,0,0-4.339-2.277,16.377,16.377,0,0,0-4-.928c3.089-.889,6.635-2.971,9.831-7.719" transform="translate(-157.79 -739.046)" fill="#ccc"/>
    <path id="Path_4265" data-name="Path 4265" d="M282.152,954.553l-.13-.085a24.163,24.163,0,0,0-4.287-2.249,16.017,16.017,0,0,0-3.923-.91l-1.463-.182,1.416-.408c3.741-1.076,6.993-3.631,9.664-7.6,1.022-1.517,2.013-3.056,3.062-4.685,5.766-8.941,11.727-18.185,22.093-23.068,10.555-4.973,13.083-5.34,17.676-6.008.709-.1,1.466-.215,2.311-.35l.112-.02.1.062c.1.063.969.709.969,3.873,0,2.628-.462,5.511-1.76,5.726-8.445.889-16.612,2.3-23.887,9.767-2.824,2.9-5.555,7.038-8.2,11.043-4.227,6.409-8.6,13.037-13.609,15.031Zm-7.014-3.656a14.275,14.275,0,0,1,2.824.762,24.938,24.938,0,0,1,4.257,2.217c4.779-1.993,9.052-8.473,13.185-14.741,2.658-4.029,5.4-8.194,8.268-11.134,7.416-7.611,15.7-9.046,24.24-9.942.59-.1,1.237-1.933,1.237-5.13,0-2.265-.455-3.069-.632-3.3-.788.125-1.5.229-2.169.325-4.535.661-7.033,1.025-17.506,5.957-10.209,4.81-16.123,13.98-21.842,22.85-1.052,1.631-2.045,3.17-3.071,4.694a18.8,18.8,0,0,1-8.791,7.437" transform="translate(-157.377 -738.958)" fill="#ccc"/>
    <path id="Path_4266" data-name="Path 4266" d="M293.64,965.156l0,0A47.034,47.034,0,0,0,284.9,957.4c8.04-3.2,14.36-18.471,21.7-26.006A29.63,29.63,0,0,1,319,923.7c-3.2,5.075-14.952,20.675-25.365,41.454" transform="translate(-160.091 -742.138)" fill="#ccc"/>
    <path id="Path_4267" data-name="Path 4267" d="M293.533,965.532l-.3-.321a47.2,47.2,0,0,0-8.681-7.714l-.485-.318.538-.214c4.838-1.923,9.155-8.47,13.33-14.8,2.657-4.029,5.4-8.194,8.267-11.134a29.965,29.965,0,0,1,12.525-7.766l.794-.256-.445.7c-.685,1.086-1.76,2.651-3.117,4.631a308.255,308.255,0,0,0-22.233,36.8Zm-8.183-8.23a48.294,48.294,0,0,1,8.036,7.18A310.181,310.181,0,0,1,315.464,928c1.078-1.568,1.974-2.875,2.638-3.885a29.3,29.3,0,0,0-11.464,7.338c-2.824,2.9-5.555,7.039-8.2,11.043-4.08,6.189-8.3,12.58-13.093,14.806" transform="translate(-159.911 -741.988)" fill="#ccc"/>
    <path id="Path_4268" data-name="Path 4268" d="M312.63,948.289c-9.049,15.284-11.057,22.724-11.057,22.724s-.016.024-.051.066c-1.99-2.556-3.807-4.7-5.472-6.517l0,0c10.412-20.779,22.16-36.378,25.365-41.454a56.192,56.192,0,0,1,11.651-2.163c-.905.152-11.386,12.064-20.436,27.347" transform="translate(-162.502 -741.542)" fill="#ccc"/>
    <path id="Path_4269" data-name="Path 4269" d="M301.417,971.482l-.234-.3c-1.883-2.419-3.717-4.606-5.457-6.5l-.14-.153.092-.185a309.145,309.145,0,0,1,22.276-36.873c1.355-1.974,2.427-3.534,3.1-4.61l.059-.091.1-.034a56.585,56.585,0,0,1,11.715-2.176l.079.6c-1.017.4-11.285,12.107-20.224,27.2-8.925,15.074-11.009,22.573-11.028,22.647l-.042.089a1.085,1.085,0,0,1-.067.089Zm-5.1-7.055c1.6,1.756,3.286,3.756,5.011,5.954.6-1.865,3.231-9.3,10.949-22.329,7.539-12.734,16.641-23.915,19.7-26.782a52.656,52.656,0,0,0-10.457,2c-.688,1.081-1.738,2.613-3.058,4.538a308.987,308.987,0,0,0-22.141,36.614" transform="translate(-162.401 -741.459)" fill="#ccc"/>
    <path id="Path_4270" data-name="Path 4270" d="M256.126,700.206c-2.713,0-18.862.276-26.107-1.019a44.574,44.574,0,0,0,7.709,8.819,23.444,23.444,0,0,0,12.266,5.631,31.542,31.542,0,0,0,12.265,0,23.444,23.444,0,0,0,12.266-5.631,44.579,44.579,0,0,0,7.71-8.819c-7.248,1.295-23.395,1.019-26.11,1.019" transform="translate(-148.224 -693.593)" fill="#ccc"/>
    <path id="Path_4271" data-name="Path 4271" d="M255.944,714.425a32.813,32.813,0,0,1-6.2-.61c-.213-.048-.466-.094-.755-.146a23.185,23.185,0,0,1-11.637-5.548,43.8,43.8,0,0,1-7.764-8.881l-.411-.594.712.128c3.857.688,10.794,1.038,20.617,1.038,1.679,0,3.108-.01,4.13-.017.571-.005,1.016-.008,1.306-.008s.735,0,1.307.008c1.022.007,2.452.017,4.13.017,9.823,0,16.76-.349,20.618-1.038l.711-.128-.411.594a43.82,43.82,0,0,1-7.763,8.881,23.189,23.189,0,0,1-11.637,5.548c-.289.052-.543.1-.756.146a32.8,32.8,0,0,1-6.2.61m-25.449-14.94a42.872,42.872,0,0,0,7.244,8.172,22.627,22.627,0,0,0,11.359,5.417c.3.054.559.1.78.151a31.2,31.2,0,0,0,12.135,0c.22-.049.481-.1.778-.151a22.619,22.619,0,0,0,11.359-5.417,42.8,42.8,0,0,0,7.245-8.172c-4,.617-10.727.93-20.014.93-1.68,0-3.112-.01-4.136-.018-.569,0-1.011-.007-1.3-.007s-.732,0-1.3.007c-1.024.008-2.456.018-4.135.018-9.286,0-16.012-.313-20.013-.93" transform="translate(-148.043 -693.476)" fill="#ccc"/>
    <path id="Path_4272" data-name="Path 4272" d="M281.87,693.1c-2.337.377-15.533,1.659-18.1,1.659H246.731c-2.565,0-15.76-1.282-18.1-1.659-.955-.154-1.85-.3-2.663-.415.679,1.227,1.778,3.066,3.174,5.094,7.244,1.295,23.393,1.019,26.106,1.019s18.863.276,26.11-1.019c1.4-2.028,2.493-3.867,3.174-5.094-.813.114-1.709.261-2.664.415" transform="translate(-147.349 -692.188)" fill="#ccc"/>
    <path id="Path_4273" data-name="Path 4273" d="M260.535,699.021c-1.68,0-3.112-.01-4.135-.018-.569,0-1.012-.007-1.3-.007s-.732,0-1.3.007c-1.024.008-2.454.018-4.135.018-9.858,0-16.831-.353-20.722-1.048l-.125-.022-.071-.1c-1.579-2.292-2.677-4.19-3.19-5.118l-.292-.528.6.084c.729.1,1.525.23,2.369.366l.3.05c2.356.379,15.5,1.655,18.051,1.655h17.041c2.547,0,15.694-1.275,18.049-1.655l.321-.053c.839-.135,1.626-.263,2.35-.363l.6-.084-.293.528c-.511.926-1.608,2.821-3.189,5.118l-.072.1-.124.022c-3.893.7-10.864,1.048-20.724,1.048m-5.438-.629c.291,0,.735,0,1.308.008,1.022.008,2.452.017,4.13.017,9.72,0,16.614-.342,20.493-1.017,1.272-1.853,2.219-3.434,2.789-4.431-.549.081-1.128.175-1.734.273l-.321.052c-2.365.381-15.582,1.662-18.144,1.662H246.578c-2.565,0-15.781-1.281-18.146-1.662l-.3-.049c-.612-.1-1.2-.2-1.75-.277.571,1,1.519,2.581,2.788,4.431,3.88.675,10.774,1.017,20.493,1.017,1.68,0,3.108-.009,4.13-.017.571-.005,1.016-.008,1.306-.008" transform="translate(-147.195 -692.082)" fill="#ccc"/>
    <path id="Path_4274" data-name="Path 4274" d="M179.269,704.571c-11.25,4.419-31.073,19.529-45.941,37.755l30.644,26.007,4.489-4.268s4.6-7.132,7.592-13.129c2.608-4.87,7.088-17.253,7.088-28.194,0-10.959-2.815-15.281-3.871-18.172" transform="translate(-127.317 -694.757)" fill="#ccc"/>
    <path id="Path_4275" data-name="Path 4275" d="M163.868,768.631l-31.075-26.376.187-.229c15.4-18.876,35.224-33.587,46.063-37.846l.286-.112.107.29c.173.476.394.988.651,1.581,1.289,2.991,3.239,7.509,3.239,16.7,0,10.367-4.164,22.811-7.122,28.337-2.966,5.936-7.557,13.078-7.6,13.15l-.045.054Zm-30.234-26.452,30.212,25.64,4.265-4.055c.329-.513,4.7-7.354,7.556-13.07,2.305-4.306,7.056-16.818,7.056-28.059,0-9.062-1.919-13.511-3.188-16.456-.21-.485-.4-.915-.556-1.323-10.782,4.355-30.173,18.8-45.345,37.324" transform="translate(-127.202 -694.648)" fill="#ccc"/>
    <path id="Path_4276" data-name="Path 4276" d="M131.783,752.743c-1.963,2.405-3.843,4.865-5.6,7.363l30.162,24.431,6.084-5.787Z" transform="translate(-125.772 -705.173)" fill="#ccc"/>
    <path id="Path_4277" data-name="Path 4277" d="M156.246,784.819l-30.587-24.774.163-.23c1.7-2.413,3.587-4.9,5.616-7.381l.194-.238,31.135,26.424Zm-29.769-24.888,29.736,24.086,5.65-5.373-30.154-25.59c-1.881,2.315-3.639,4.626-5.232,6.877" transform="translate(-125.659 -705.054)" fill="#ccc"/>
    <path id="Path_4278" data-name="Path 4278" d="M333.648,704.571c11.25,4.419,31.072,19.529,45.94,37.755l-30.644,26.007-4.488-4.268s-4.594-7.132-7.592-13.129c-2.608-4.87-7.088-17.253-7.088-28.194,0-10.959,2.815-15.281,3.871-18.172" transform="translate(-169.794 -694.757)" fill="#ccc"/>
    <path id="Path_4279" data-name="Path 4279" d="M348.848,768.631l-4.728-4.51c-.049-.072-4.64-7.215-7.609-13.156-2.954-5.52-7.12-17.964-7.12-28.33,0-9.186,1.948-13.7,3.239-16.694.255-.593.476-1.106.651-1.581l.106-.291.287.112c10.839,4.26,30.666,18.971,46.064,37.847l.187.229Zm-4.24-4.867,4.264,4.055,30.211-25.64c-15.17-18.521-34.562-32.969-45.346-37.323-.157.408-.343.838-.553,1.322-1.27,2.945-3.189,7.394-3.189,16.456,0,11.242,4.751,23.754,7.052,28.051,2.861,5.724,7.23,12.565,7.561,13.078" transform="translate(-169.711 -694.648)" fill="#ccc"/>
    <path id="Path_4280" data-name="Path 4280" d="M384.876,752.743c1.963,2.405,3.844,4.865,5.6,7.363l-30.162,24.431-6.085-5.787Z" transform="translate(-175.082 -705.173)" fill="#ccc"/>
    <path id="Path_4281" data-name="Path 4281" d="M360.176,784.818l-6.52-6.2.256-.216,30.879-26.208.194.238c2.031,2.491,3.92,4.974,5.615,7.381l.162.23Zm-5.618-6.175,5.65,5.373,29.736-24.086c-1.588-2.246-3.347-4.557-5.23-6.877Z" transform="translate(-174.958 -705.054)" fill="#ccc"/>
    <path id="Path_4282" data-name="Path 4282" d="M306.845,802.254c.2-34.385,4.826-40.316,4.826-40.316s-4.594-7.132-7.592-13.129c-2.608-4.871-7.088-17.254-7.088-28.195,0-10.959,2.815-15.281,3.871-18.172L279.4,694.726c-4.524,9.7-13.069,15.734-17.594,18.75s-13.875,4.022-14.88,4.022H242.9c-1.006,0-10.357-1.006-14.881-4.022s-13.069-9.049-17.594-18.75l-21.465,7.716c1.056,2.891,3.871,7.212,3.871,18.172,0,10.941-4.48,23.324-7.088,28.195-3,6-7.591,13.129-7.591,13.129s4.626,5.931,4.827,40.316-1.409,60.727-1.409,60.727c6.233,1,7.743.6,19.906,6.334s18.4,17.8,25.036,27.648c3.2,4.747,6.741,6.831,9.829,7.719a66.112,66.112,0,0,1,8.568-.277,66.1,66.1,0,0,1,8.569.277c3.089-.888,6.635-2.971,9.831-7.719,6.637-9.852,12.87-21.917,25.035-27.648s13.674-5.329,19.907-6.334c0,0-1.608-26.342-1.408-60.727" transform="translate(-137.01 -692.628)" fill="#ccc"/>
    <g id="Group_2412" data-name="Group 2412" transform="translate(41.143 2.098)">
      <g id="Group_2411" data-name="Group 2411" clip-path="url(#clip-path)">
        <rect id="Rectangle_2211" data-name="Rectangle 2211" width="153.97" height="4.018" transform="translate(-10.225 198.807)" fill="#ccc"/>
        <rect id="Rectangle_2212" data-name="Rectangle 2212" width="153.97" height="4.018" transform="translate(-10.225 208.015)" fill="#ccc"/>
        <rect id="Rectangle_2213" data-name="Rectangle 2213" width="153.97" height="4.017" transform="translate(-10.225 180.391)" fill="#ccc"/>
        <rect id="Rectangle_2214" data-name="Rectangle 2214" width="153.97" height="4.018" transform="translate(-10.225 189.598)" fill="#ccc"/>
        <rect id="Rectangle_2215" data-name="Rectangle 2215" width="153.97" height="4.018" transform="translate(-10.225 161.975)" fill="#ccc"/>
        <rect id="Rectangle_2216" data-name="Rectangle 2216" width="153.97" height="4.017" transform="translate(-10.225 171.184)" fill="#ccc"/>
        <rect id="Rectangle_2217" data-name="Rectangle 2217" width="153.97" height="4.018" transform="translate(-10.225 143.559)" fill="#ccc"/>
        <rect id="Rectangle_2218" data-name="Rectangle 2218" width="153.97" height="4.018" transform="translate(-10.225 152.766)" fill="#ccc"/>
        <rect id="Rectangle_2219" data-name="Rectangle 2219" width="153.97" height="4.018" transform="translate(-10.225 125.143)" fill="#ccc"/>
        <rect id="Rectangle_2220" data-name="Rectangle 2220" width="153.97" height="4.017" transform="translate(-10.225 134.351)" fill="#ccc"/>
        <rect id="Rectangle_2221" data-name="Rectangle 2221" width="153.97" height="4.018" transform="translate(-10.225 106.727)" fill="#ccc"/>
        <rect id="Rectangle_2222" data-name="Rectangle 2222" width="153.97" height="4.018" transform="translate(-10.225 115.934)" fill="#ccc"/>
        <rect id="Rectangle_2223" data-name="Rectangle 2223" width="153.97" height="4.018" transform="translate(-10.225 88.31)" fill="#ccc"/>
        <rect id="Rectangle_2224" data-name="Rectangle 2224" width="153.97" height="4.016" transform="translate(-10.225 97.52)" fill="#ccc"/>
        <rect id="Rectangle_2225" data-name="Rectangle 2225" width="153.97" height="4.018" transform="translate(-10.225 69.894)" fill="#ccc"/>
        <rect id="Rectangle_2226" data-name="Rectangle 2226" width="153.97" height="4.018" transform="translate(-10.225 79.103)" fill="#ccc"/>
        <rect id="Rectangle_2227" data-name="Rectangle 2227" width="153.97" height="4.016" transform="translate(-10.225 51.48)" fill="#ccc"/>
        <rect id="Rectangle_2228" data-name="Rectangle 2228" width="153.97" height="4.017" transform="translate(-10.225 60.688)" fill="#ccc"/>
        <rect id="Rectangle_2229" data-name="Rectangle 2229" width="153.97" height="4.018" transform="translate(-10.225 33.063)" fill="#ccc"/>
        <rect id="Rectangle_2230" data-name="Rectangle 2230" width="153.97" height="4.017" transform="translate(-10.225 42.271)" fill="#ccc"/>
        <rect id="Rectangle_2231" data-name="Rectangle 2231" width="153.97" height="4.018" transform="translate(-10.225 14.646)" fill="#ccc"/>
        <rect id="Rectangle_2232" data-name="Rectangle 2232" width="153.97" height="4.018" transform="translate(-10.225 23.854)" fill="#ccc"/>
        <rect id="Rectangle_2233" data-name="Rectangle 2233" width="153.97" height="4.018" transform="translate(-10.225 -3.77)" fill="#ccc"/>
        <rect id="Rectangle_2234" data-name="Rectangle 2234" width="153.97" height="4.016" transform="translate(-10.225 5.439)" fill="#ccc"/>
      </g>
    </g>
  </g>
</svg>
