<svg xmlns="http://www.w3.org/2000/svg" xmlns:xlink="http://www.w3.org/1999/xlink" width="51.14" height="56.544" viewBox="0 0 51.14 56.544">
  <defs>
    <clipPath id="clip-path">
      <rect id="Rectangle_2169" data-name="Rectangle 2169" width="51.14" height="56.544" fill="none"/>
    </clipPath>
  </defs>
  <g id="Group_1898" data-name="Group 1898" style="mix-blend-mode: multiply;isolation: isolate">
    <g id="Group_1897" data-name="Group 1897" transform="translate(0)">
      <g id="Group_1896" data-name="Group 1896" clip-path="url(#clip-path)">
        <path id="Path_2704" data-name="Path 2704" d="M260.476,773.254c-.561,1.359-1.113,2.722-1.684,4.077a8.166,8.166,0,0,0-.57,1.807,6.613,6.613,0,0,1-.641,1.894,23.107,23.107,0,0,0-.989,2.449,17.327,17.327,0,0,1-.971,2.225,10.652,10.652,0,0,0-.87,2.266,37.56,37.56,0,0,1-3.94,8.978,13.854,13.854,0,0,1-2.894,3.222,3.769,3.769,0,0,1-3.119.665,26.912,26.912,0,0,1-6.279-1.429,51.994,51.994,0,0,0-6.333-1.7,46.849,46.849,0,0,0-5.9-1.252c-.876-.092-1.755-.155-2.632-.243a4.275,4.275,0,0,1-.935-.157,21.514,21.514,0,0,0-3.79-.942,3.437,3.437,0,0,1-2.028-1.049c-.586-.608-1.252-1.127-1.8-1.781a9.24,9.24,0,0,1-1.887-5.164,64.71,64.71,0,0,0-1.773-9.44,63.892,63.892,0,0,1-1.706-8.278,5.394,5.394,0,0,1,.141-3.023c.024-.105.061-.231.158-.259,1.182-.342,3.074.864,3.162,2.044.495,6.59,2.523,12.874,3.864,19.294a26.434,26.434,0,0,0,1.561,4.052c.526,1.361,1.6,1.618,2.659.6,1.37-1.316,2.908-2.553,3.7-4.317.974-2.166,2.556-3.88,3.888-5.781a25.312,25.312,0,0,0,1.513-2.429c.244-.447.531-.851,1.132-.8a22.947,22.947,0,0,1,7.753,6.04,30.709,30.709,0,0,1,3.782,7.161,10.559,10.559,0,0,0,1.922,3.155,2.447,2.447,0,0,0-.248-1.753c-1.366-3.667-2.715-7.34-4.2-10.964a6.209,6.209,0,0,1-.333-1.654,4.041,4.041,0,0,0-2.98-3.588,19.366,19.366,0,0,1-4.006-1.627,1.5,1.5,0,0,1,1.608-2.017c1.082.132,2.123.473,3.186.709a1.651,1.651,0,0,0,1.769-.591,48.361,48.361,0,0,0,3.122-4.483c.176-.2.279-.479.561-.58.511.114.891.5,1.425.612,1.172.237,2.313.439,3.336-.42.359.494-.056.8-.322,1.069a19.767,19.767,0,0,0-3.067,4.912,6.812,6.812,0,0,0-.26,4.762,24.971,24.971,0,0,1,.588,4.291,6.11,6.11,0,0,0,1.151,3.357,13.282,13.282,0,0,1,1.361,2.139c.132.3.308.581.706.5a.809.809,0,0,0,.6-.671,3.015,3.015,0,0,0-.126-1.771,10.266,10.266,0,0,1-.385-4.907,6.427,6.427,0,0,0-.043-2.529,6.71,6.71,0,0,1,1.178-5.795,19.991,19.991,0,0,1,2.135-3,9.266,9.266,0,0,1,2.828.748,47.461,47.461,0,0,0,5.918,1.368" transform="translate(-209.586 -744.358)" fill="#a3dff7" fill-rule="evenodd"/>
        <path id="Path_2705" data-name="Path 2705" d="M243.36,761.717a7.414,7.414,0,0,0-.906,1.277,21.9,21.9,0,0,1-2.769,3.8.979.979,0,0,1-1.107.317c-1.184-.294-2.381-.543-3.575-.8-.987-.209-1.7.575-1.517,1.658a3.975,3.975,0,0,1-2.526-.3q-7.405-2.012-14.605-4.67a6.123,6.123,0,0,0-1.633-.427c-.174-.013-.367.009-.438.212s.085.323.223.431a1.3,1.3,0,0,0,.373.2c2.238.772,4.326,1.9,6.538,2.735a72.447,72.447,0,0,1,9.864,4.825.492.492,0,0,1,.285.413,1.2,1.2,0,0,0-.779.652,22.384,22.384,0,0,1-3.67,5.248,14.623,14.623,0,0,0-1.545,2.749,12.38,12.38,0,0,1-3.039,3.724c-.488.357-.728.982-1.273,1.35a1.642,1.642,0,0,1-2.569-.521,34.431,34.431,0,0,1-2.316-6.429c-.735-3.328-1.244-6.708-2.274-9.969a5.149,5.149,0,0,1-.138-.833c-.318-2.222-1.041-4.39-.927-6.669a1.188,1.188,0,0,0-1.087-1.407,7.128,7.128,0,0,1-1.387-.5.521.521,0,0,0-.583.083,7.451,7.451,0,0,1,1.368-3.037,32.788,32.788,0,0,1,2.661-3.643,6.175,6.175,0,0,0,.668-1.307,17.044,17.044,0,0,1,2.367-3.709,9.259,9.259,0,0,0,1.188-1.974,27.438,27.438,0,0,1,5.077-7.174c.388.027.5.349.654.62,1.6,2.826,3.317,5.581,4.714,8.519a32.476,32.476,0,0,0,3.915,5.643,30.779,30.779,0,0,1,2.673,3.809,5.349,5.349,0,0,0,4.184,2.884,1.863,1.863,0,0,1,1.344.523c.441.891-.512,1.451-.557,2.3.6.007.843-.425,1.115-.81s.473-.891,1.1-.829a1.377,1.377,0,0,1,.911,1.031" transform="translate(-209.692 -736.844)" fill="#caedfb" fill-rule="evenodd"/>
        <path id="Path_2706" data-name="Path 2706" d="M248.24,761.285l-1.091-.986a.637.637,0,0,1,.18-.585,23.638,23.638,0,0,0,3.16-4.866c1.435-2.4,3.256-4.517,4.757-6.861.19-.3.41-.573.583-.881.8-1.421.572-2.339-.818-3.2a10.8,10.8,0,0,0-4.947-1.725,6.007,6.007,0,0,1-1.856-.4,34.032,34.032,0,0,0-7.926-1.709c-1.083-.171-2.077-.695-3.172-.815-.622-.068-1.267-.254-1.789.283-.156.416.2.447.43.573,2.386.908,4.9,1.32,7.354,1.986q1.994.542,3.984,1.091a2.308,2.308,0,0,1,1.228.573,8.781,8.781,0,0,0,.989,1.039,6.578,6.578,0,0,1,.638.938,4.031,4.031,0,0,0,.606.771c1.491,2.065.661,4.1-.291,5.978a15.636,15.636,0,0,1-2.739,4.367,6.756,6.756,0,0,0-.936,1.767c-.243.448-.35,1.027-.973,1.164-.363-.435-.9-.4-1.369-.433a5.985,5.985,0,0,1-3.055-1.3,4.706,4.706,0,0,1-1.2-1.577,52.461,52.461,0,0,0-4.265-5.855,24.5,24.5,0,0,1-2.729-4.364,76.653,76.653,0,0,0-3.841-6.907c-.343-.57-.643-1.167-.963-1.751,1-1.242,2.409-1.272,3.776-1.106,1.423.173,2.818.576,4.225.882.136.029.263.107.4.123,3.331.4,6.544,1.387,9.84,1.957a4.564,4.564,0,0,1,.819.214,48.832,48.832,0,0,0,7.4,1.7,9.429,9.429,0,0,1,4.948,2.174,3.824,3.824,0,0,1,.994,1.452,4.092,4.092,0,0,0-1.706,1.818c-2.949,4.55-6.406,8.733-9.491,13.184-.219.316-.428.657-.878.679a1.426,1.426,0,0,0-.277.613" transform="translate(-214.572 -736.413)" fill="#bee6f9" fill-rule="evenodd"/>
        <path id="Path_2707" data-name="Path 2707" d="M255.959,763.723c.65-.913,1.253-1.865,1.961-2.73,1.069-1.309,1.916-2.769,2.973-4.088,1.116-1.392,2.168-2.841,3.188-4.313a34.086,34.086,0,0,1,2.4-3.455,6.552,6.552,0,0,0,.611-.984c.265-.426.582-.472.942-.111a9.863,9.863,0,0,1,1.4,3.17,50.461,50.461,0,0,1,1.438,6.277,48.487,48.487,0,0,0,1.684,5.9,10.359,10.359,0,0,1,.537,4.374,1.18,1.18,0,0,1-.195.594,2.138,2.138,0,0,1-1.034.035,32.269,32.269,0,0,1-6.413-1.624c-.415-.123-.94-.055-1.242-.491a3.2,3.2,0,0,1,.9-1.743,12.709,12.709,0,0,0,1.208-1.85c.414-.807.122-1.349-.769-1.545a2.347,2.347,0,0,0-1.538.2,6.719,6.719,0,0,0-2.239,1.717c-.314.362-.587.809-1.143.862a3.105,3.105,0,0,0-.354.39,1.191,1.191,0,0,1-1.544.49,14.485,14.485,0,0,0-1.964-.361.9.9,0,0,1-.808-.717" transform="translate(-222.014 -739.464)" fill="#8bd3f4" fill-rule="evenodd"/>
        <path id="Path_2708" data-name="Path 2708" d="M232.958,780.236c-2.651-1.361-5.248-2.82-7.964-4.058-1.539-.7-3.157-1.2-4.693-1.908a28.6,28.6,0,0,0-4.083-1.713,2.951,2.951,0,0,1-.582-.252c-.337-.182-.587-.438-.4-.851a.657.657,0,0,1,.878-.37c1.11.345,2.256.605,3.323,1.054,2.085.876,4.27,1.444,6.4,2.175,2.2.754,4.44,1.39,6.681,2.011.769.213,1.586.264,2.358.5,1.488.543,2.981,1.074,4.463,1.631a3.971,3.971,0,0,1,2.637,3.716,7.619,7.619,0,0,0,.6,2.231c1.228,3.106,2.5,6.2,3.539,9.373a15.147,15.147,0,0,1,.739,1.974,3.37,3.37,0,0,1,.111.725c-.016.417-.314.552-.642.3a2.557,2.557,0,0,1-.5-.539,27.387,27.387,0,0,1-2.612-5.4,9.944,9.944,0,0,0-1.963-3.46,5.256,5.256,0,0,1-.889-1.171,10.958,10.958,0,0,0-3.2-3.152c-1.341-1.039-2.787-1.891-4.2-2.806" transform="translate(-211.083 -745.691)" fill="#fff" fill-rule="evenodd"/>
        <path id="Path_2709" data-name="Path 2709" d="M260.793,768.67a12.242,12.242,0,0,1,2.47-2.431,3.361,3.361,0,0,1,2.673-.635c.995.26,1.293.82.924,1.787a6.105,6.105,0,0,1-.886,1.421c-.541.732-.994,1.529-1.594,2.217a6.708,6.708,0,0,1-1.163,1.863c-.715,1.049-1.249,2.193-1.914,3.264a3.13,3.13,0,0,0-.176,2.373,17.168,17.168,0,0,1,.074,5.356,4.909,4.909,0,0,0,.146,1.872c.175.646.367,1.287.507,1.94a2.6,2.6,0,0,1-.1,1.763.96.96,0,0,1-.915.61.8.8,0,0,1-.806-.69,5.788,5.788,0,0,0-1.135-1.881,6.394,6.394,0,0,1-1.419-3.78,25.018,25.018,0,0,0-.611-4.379,7.082,7.082,0,0,1,.242-4.743,17.308,17.308,0,0,1,.9-1.777,14.209,14.209,0,0,1,2.342-3.353c.228-.2.494-.421.444-.8" transform="translate(-222.178 -744.213)" fill="#c6eafa" fill-rule="evenodd"/>
        <path id="Path_2710" data-name="Path 2710" d="M237.358,740.52c.072-.5.351-.686.86-.736a6.651,6.651,0,0,1,2.7.376,11.569,11.569,0,0,0,2.767.626,27.384,27.384,0,0,0,2.91.5,5.831,5.831,0,0,1,2.356.509,8.7,8.7,0,0,0,.881.356,17.645,17.645,0,0,0,2.984.67,10.079,10.079,0,0,1,5.405,2.191,1.953,1.953,0,0,1,.436,2.889c-.974,1.5-1.943,3-3.058,4.408a32.385,32.385,0,0,0-3.207,4.938,18.171,18.171,0,0,1-2.793,3.948,4.515,4.515,0,0,0-.777,1.111c-.5.859-.818.958-1.84.7.324-.8.98-1.444,1.083-2.332a2.361,2.361,0,0,0,.464-.818,10.622,10.622,0,0,1,2.247-3.514,2.421,2.421,0,0,0,.4-.734,11.221,11.221,0,0,1,.971-1.735,9.968,9.968,0,0,0,1.383-3.819,3.488,3.488,0,0,0-.766-2.56c-.032-.334-.454-.395-.5-.717-.314-.217-.376-.62-.639-.875-.163-.517-.788-.641-.974-1.14a.993.993,0,0,0-.261-.173c-2.815-.731-5.594-1.588-8.446-2.2a12.919,12.919,0,0,1-3.965-1.3.875.875,0,0,1-.62-.577" transform="translate(-217.029 -737.31)" fill="#fff" fill-rule="evenodd"/>
        <path id="Path_2711" data-name="Path 2711" d="M255.517,746.6c.332.373.894.55.974,1.14-.321-.382-.889-.555-.974-1.14" transform="translate(-221.895 -739.143)" fill="#caedfb" fill-rule="evenodd"/>
        <path id="Path_2712" data-name="Path 2712" d="M257.72,749.354c.212.207.529.342.5.717-.206-.214-.531-.342-.5-.717" transform="translate(-222.485 -739.881)" fill="#caedfb" fill-rule="evenodd"/>
        <path id="Path_2713" data-name="Path 2713" d="M237.358,740.8l.62.576c-.4.018-.621-.161-.62-.576" transform="translate(-217.029 -737.588)" fill="#caedfb" fill-rule="evenodd"/>
      </g>
    </g>
  </g>
</svg>
