<svg xmlns="http://www.w3.org/2000/svg" width="92.654" height="101.936" viewBox="0 0 92.654 101.936">
  <g id="Group_1910" data-name="Group 1910" transform="matrix(0.934, 0.358, -0.358, 0.934, 29.756, -0.343)">
    <path id="Path_2714" data-name="Path 2714" d="M.506,16.559A2.273,2.273,0,0,1,.255,14.2c.7-1.087,4.514-3.053,8.575-5.784S18.54,2.206,19.309.648s1.68-.2-1.855,2.916S7.486,12.14,6.32,13.153,1.552,18.263.506,16.559Z" transform="translate(36.071 30.403)" fill="none" stroke="#4e4d4d" stroke-miterlimit="10" stroke-width="0.5"/>
    <path id="Path_2715" data-name="Path 2715" d="M.686,7.566A36.6,36.6,0,0,0,7.422,5.092C10.817,3.422,12.9-.344,16.433.025S21.556,1.447,21.192,2,17.655-.11,15.543,1.374,8.5,6.462,7.173,7.094.859,10.056.356,9.052-.182,7.82.686,7.566" transform="translate(37.952 40.775)" fill="#db1515"/>
    <path id="Path_2716" data-name="Path 2716" d="M.144,4.417A1.9,1.9,0,0,0,2.6,4.6a11.023,11.023,0,0,1,5.717-1.53c1.809.2,6.161-.308,8.043-1.448S18.234-.282,17.521.1,14.4,2.162,12.234,1.841,2.477,1.52,1.4,2.457-.3,4.065.144,4.417" transform="translate(39.176 46.183)" fill="#db1515"/>
    <path id="Path_2717" data-name="Path 2717" d="M2.229,6.4A6.592,6.592,0,0,0,6.048,5c1.8-1.431,3.831-3.26,5.816-4.024s5.3-1.29,5.839-.76-1.042-.269-2.633.477A58.517,58.517,0,0,0,5.564,7.4C2.279,10.262.058,9.373,0,8.5S1.833,6.422,2.229,6.4" transform="translate(30.63 53.167)" fill="#db1515"/>
    <path id="Path_2718" data-name="Path 2718" d="M2.139,6.867S6.812,7.12,7.932,6.3s4.93-4.213,6.049-4.987C16.3-.292,18.6-.239,19.658.481c1.412.964-2.4-.231-3.816.786S9.755,6.644,8.479,7.337,1.344,9.778.268,8.279s1.393-1.431,1.87-1.412" transform="translate(26.955 56.166)" fill="#db1515"/>
    <path id="Path_2719" data-name="Path 2719" d="M0,5.338s.781,1.819,3.811,2.2,5.95.432,8.2-1.011S16.88,2.969,18.481,2.11,23.357.555,22.7.125s-3.15.289-5.154,1.53-6.884,4.6-8.465,4.36S.505,3.586,0,5.338" transform="translate(24.157 59.302)" fill="#db1515"/>
    <path id="Path_2720" data-name="Path 2720" d="M2.527.081A9.219,9.219,0,0,1,8.382,3.823c2.3,3.288,3.043,5.5,2.574,5.115S8.446,4.336,6.724,3.8.517,2.25.08,1.533,1.074-.312,2.527.081" transform="translate(17.386 68.622)" fill="#db1515"/>
    <path id="Path_2721" data-name="Path 2721" d="M1.717.033A11.14,11.14,0,0,1,6.6.728c2.073.959,6.039,4.463,5.96,5.3S10.247,3.47,7.888,2.85.093,2.3.005,1.753.982.076,1.717.033" transform="translate(15.171 72.035)" fill="#db1515"/>
    <path id="Path_2722" data-name="Path 2722" d="M.393,1.068A7.989,7.989,0,0,1,4.825.032c2.31.251,5.508.643,7.536,3.229S9.193.538,5.324,1.572-1,3.241.393,1.068" transform="translate(14.631 75.462)" fill="#db1515"/>
    <path id="Path_2723" data-name="Path 2723" d="M0,2.044S2.25.292,3.473.157s5.8-.623,8.233,1.271-3.734-1.542-6.87-.24S1.058,5.071,0,2.044" transform="translate(15.085 78.233)" fill="#db1515"/>
    <path id="Path_2724" data-name="Path 2724" d="M.258,2.954A6.7,6.7,0,0,1,3.638.579C5.683.073,9.244-.4,10.476.534S7.172.385,4.544,1.678.914,6.364.367,5.328A2.393,2.393,0,0,1,.258,2.954" transform="translate(16.819 80.3)" fill="#db1515"/>
    <path id="Path_2725" data-name="Path 2725" d="M0,15.348S4.811,3.069,6.625,1.162s3.865-1.287,3.744.558C10.233,3.8,3.3,17.86,0,15.348" transform="translate(27.776 75.096)" fill="#a2241e"/>
    <path id="Path_2726" data-name="Path 2726" d="M0,53.306s13.481-12.6,20.321-28.989S32.543,1.8,41.621.317,61.358,2.361,62.571,15.3,42.621,39.632,37.277,41.828" transform="translate(4.18 3.62)" fill="none" stroke="#ab5c5c" stroke-miterlimit="10" stroke-width="0.5"/>
    <path id="Path_2727" data-name="Path 2727" d="M0,55.469S14.025,42.362,21.142,25.3,33.855,1.874,43.3.329s20.535,2.131,21.8,15.6-20.755,25.315-26.316,27.6" transform="translate(1.859 0)" fill="none" stroke="#ab5c5c" stroke-miterlimit="10" stroke-width="0.5"/>
    <path id="Path_2728" data-name="Path 2728" d="M0,14.894S3.183,7.551,4.969,5.359,10.526-.35,12.121.028a3.2,3.2,0,0,1,2.24,3.029C14.305,3.924.8,16.8,0,14.894" transform="translate(27.919 75.226)" fill="#db1515"/>
    <path id="Path_2729" data-name="Path 2729" d="M.086,13.766s-.921-2.114,3.272-5.929S12.231.111,13.731,0a2.669,2.669,0,0,1,1.456,4.753C12.752,6.969,3.851,14.972,2.354,15.334S-.3,15.472.086,13.766" transform="translate(28.571 76.876)" fill="#ea4f49"/>
    <path id="Path_2730" data-name="Path 2730" d="M5.989.14s5.643.994,7.278,1.236,3.1,1.4,2.041,2.475-.627,3.6-6.521,4.042S.566,7.381.047,5.755,3.388-.9,5.989.14" transform="translate(14.304 87.981)" fill="#ea4f49"/>
    <path id="Path_2731" data-name="Path 2731" d="M2.373,0C.874,1.384-.248,3.408.047,4.332.566,5.958,2.893,6.913,8.786,6.468a16.486,16.486,0,0,0,1.655-.2,3.291,3.291,0,0,0,1.108-4.817C10.813.5,4.818.119,2.373,0" transform="translate(14.304 89.404)" fill="#ed6a69"/>
    <path id="Path_2732" data-name="Path 2732" d="M.821,1.511C.179,2.04-.629,2.553.777,3.138s5.124.24,5.825-.9S6.827-.1,5.073.007a8.967,8.967,0,0,0-4.252,1.5" transform="translate(17.404 91.726)" fill="#f39a9c"/>
    <path id="Path_2733" data-name="Path 2733" d="M11.459.1a26.334,26.334,0,0,1,3.7,2.494c.554.672.7,2.711-2.472,5.219S6.495,10.765,4.466,9.05s-5-4.7-4.382-5.317S10.156-.669,11.459.1" transform="translate(5.264 84.185)" fill="#ea4f49"/>
    <path id="Path_2734" data-name="Path 2734" d="M12.719,4.6c.012-.984-2.2-3.378-3.4-4.6A43.77,43.77,0,0,0,.084,3.5c-.571.565,1.891,3.13,3.868,4.873a7.8,7.8,0,0,0,2.4.766C7.995,9.267,12.7,5.95,12.719,4.6" transform="translate(5.264 84.421)" fill="#ed6a69"/>
    <path id="Path_2735" data-name="Path 2735" d="M.005,1.791c.1.58,1.326,2.293,2.412,2.117A11.834,11.834,0,0,0,6.851,1.69c.485-.656-.46-2.238-2.106-1.5s-1.952.994-3.2,1.1-1.593.185-1.538.5" transform="translate(9.189 88.833)" fill="#f39a9c"/>
    <path id="Path_2736" data-name="Path 2736" d="M11.63.391s2.959,3.154,3.462,4.947-2.985,4.72-4.794,5.39S3.029,12.3,1.669,8.6-.414,1.9.25,1.151s9.84-1.7,11.38-.761" transform="translate(2.381 77.898)" fill="#ea4f49"/>
    <path id="Path_2737" data-name="Path 2737" d="M12.1,4.57C11.837,3.546,9.544,1.125,8.437,0,5.181.026.7.634.249,1.15c-.615.7-.033,3.336,1.143,6.679A6.228,6.228,0,0,0,6.11,9.507c4.873-.066,6.337-3.582,5.989-4.937" transform="translate(2.381 77.899)" fill="#ed6a69"/>
    <path id="Path_2738" data-name="Path 2738" d="M.026.84A1.3,1.3,0,0,0,0,1.031a1.913,1.913,0,0,0,1.835,2.01c1.606.266,5.43-.884,5.652-1.734S7.077.057,4.649.16.332-.592.026.84" transform="translate(3.943 81.826)" fill="#f39a9c"/>
    <path id="Path_2739" data-name="Path 2739" d="M14.38,5.046s3.187,6.045-.394,7.3-9.48,2.631-12.471-1.06S.523.561,2.71.041,13.959,4.162,14.38,5.046" transform="translate(0 67.653)" fill="#ea4f49"/>
    <path id="Path_2740" data-name="Path 2740" d="M12.971,3.986C10.243,2.341,4.408-.364,2.71.041,1.029.44-.54,4.686.179,8.306c.547.481,1.138.973,1.679,1.47,1.705,1.57,5.944,2.232,9.039,1.066,2.431-.915,2.259-5.1,2.074-6.855" transform="translate(0 67.653)" fill="#ed6a69"/>
    <path id="Path_2741" data-name="Path 2741" d="M.254,1C.1,1.184-.787,3.35,2.046,4.3s5.69.8,6.312.186S8.248,3.292,6,2.372,2.206.009,1.532,0,.254,1,.254,1" transform="translate(1.793 71.239)" fill="#f39a9c"/>
    <path id="Path_2742" data-name="Path 2742" d="M15.45,9.2s1.125,2.922-.612,4.611-6.735.42-9.447-.629S-1.547,7.82.577,5.042,4.89-.309,6.657.03,15.281,8.624,15.45,9.2" transform="translate(2.231 59.594)" fill="#ea4f49"/>
    <path id="Path_2743" data-name="Path 2743" d="M.468,5.042A2.772,2.772,0,0,0,0,5.966C.172,7.075.912,8.651,3.423,10c4.413,2.366,6.08,2.583,8.361.805a8.313,8.313,0,0,0,2.724-2.772C12.594,5.594,7.956.3,6.549.03,4.781-.309,2.592,2.266.468,5.042" transform="translate(2.34 59.594)" fill="#ed6a69"/>
    <path id="Path_2744" data-name="Path 2744" d="M.243.676A2.722,2.722,0,0,0,.8,3.711c1.372,1.229,5.774,1.962,6.164,2S8.4,5.6,6.759,4.285A26.2,26.2,0,0,1,3.41,1.094C2.235-.145.487-.4.243.676" transform="translate(5.261 63.124)" fill="#f39a9c"/>
    <path id="Path_2745" data-name="Path 2745" d="M9.917,0S3.178,1.039.494,4.381,6.9,13.211,7.95,13.987s3.608,2.26,6.057.5S15.6,7.326,14,4.95A44.147,44.147,0,0,0,9.917,0" transform="translate(7.071 54.385)" fill="#ea4f49"/>
    <path id="Path_2746" data-name="Path 2746" d="M.13,3.437A2.738,2.738,0,0,0,.881,6.23c2.075,2.394,5.583,6.276,9.37,5.516A9.553,9.553,0,0,0,14.23,9.983,10.733,10.733,0,0,0,12.705,4.95,44.161,44.161,0,0,0,8.625,0S3.18.839.13,3.437" transform="translate(8.363 54.385)" fill="#ed6a69"/>
    <path id="Path_2747" data-name="Path 2747" d="M3.765,0S1.528.15.721,1.226-.466,5.078.941,5.663,6.968,6.749,7.82,7.535,5.305.064,3.765,0" transform="translate(12.032 55.368)" fill="#f39a9c"/>
    <path id="Path_2748" data-name="Path 2748" d="M1.2,32.571s-2.587-3.822-.177-6.064A142.859,142.859,0,0,1,12.7,17.757a63.808,63.808,0,0,1,11.074-5.741C27.15,10.823,31.512,9.64,33.9,7.365s7.48-8.03,7.117-7.3C40.838.412,30.707,15.075,29.5,17.351S20.578,32.045,17.594,35.275,6.736,40.839,4.622,37.963A45.685,45.685,0,0,1,1.2,32.571" transform="translate(15.398 25.828)" fill="#ea4f49"/>
    <path id="Path_2749" data-name="Path 2749" d="M33.9,7.365c-2.385,2.274-6.747,3.458-10.124,4.651A63.823,63.823,0,0,0,12.7,17.757,142.859,142.859,0,0,0,1.027,26.506c-2.41,2.243.176,6.064.176,6.064s.35.676.982,1.727c1.157,1.314,2.772,2.643,4.466,2.454A18.159,18.159,0,0,0,17.726,30.7c3.615-3.956,6.02-8.2,7.475-9.857S32.755,9.762,36.631,6.223l.547-.5C39.251,2.675,40.943.2,41.013.063c.363-.727-4.732,5.029-7.117,7.3" transform="translate(15.398 25.828)" fill="#ed6a69"/>
    <path id="Path_2750" data-name="Path 2750" d="M3,4.2S-.567,7.4.078,9.173,1.8,13.193,3.967,12.895s2.715-1.314,5.411-3.024,4.21-1.366,3.492-3.545-1.219-1.664-1.577-3.78S10.473-.627,8.49.392A47.6,47.6,0,0,0,3,4.2" transform="translate(22.535 43.757)" fill="#f39a9c"/>
    <path id="Path_2751" data-name="Path 2751" d="M.6,3.672a1.886,1.886,0,0,0,2.89-.228C4.865,1.748,4.637.91,3.869.414a2.257,2.257,0,0,0-2.8.152C.148,1.378-.551,3.083.6,3.672" transform="translate(37.324 36.584)" fill="#1c1c1e"/>
    <path id="Path_2752" data-name="Path 2752" d="M1.624.209a.873.873,0,0,1-.295,1.167.872.872,0,0,1-1.2.067A.872.872,0,0,1,.422.276a.872.872,0,0,1,1.2-.067" transform="translate(39.006 37.381)" fill="#b4b4b4"/>
    <path id="Path_2753" data-name="Path 2753" d="M1.068,10.756s2.7-.021,3.778-1.267,6.03-5.945,6.883-7.214A2.288,2.288,0,0,0,12.117.007c-.044-.117.038,1.354-3.193,3.658S-.484,9.932.03,10.431a1.071,1.071,0,0,0,1.038.325" transform="translate(30.706 31.748)" fill="#ea4f49"/>
  </g>
</svg>
