<svg xmlns="http://www.w3.org/2000/svg" width="111.471" height="207.133" viewBox="0 0 111.471 207.133"><g transform="translate(-864 -1289.5)"><g transform="translate(864 1336.446)"><path d="M296.3,447.121V441.9a4.5,4.5,0,0,1,4.484-4.485h4.044a4.5,4.5,0,0,1,4.485,4.485v5.225a4.5,4.5,0,0,1-4.485,4.485h-4.044a4.5,4.5,0,0,1-4.484-4.485" transform="translate(-247.186 -291.419)" fill="#282b38"/><path d="M291.831,442.887v-4.411a4.908,4.908,0,0,1,4.893-4.893h19.79a4.907,4.907,0,0,1,4.891,4.893v4.411a4.907,4.907,0,0,1-4.891,4.893h-19.79a4.908,4.908,0,0,1-4.893-4.893" transform="translate(-251.001 -294.689)" fill="#62687c"/><path d="M303.023,412.306h0c-2.511,0-6.846-2.053-6.846-4.565l2.283-44.5a4.564,4.564,0,0,1,9.128,0l2.281,44.5c0,2.513-4.335,4.565-6.846,4.565" transform="translate(-247.288 -358.676)" fill="#333744"/><path d="M370.455,485.347H280.638a10.826,10.826,0,0,1-10.827-10.827V391.072a10.826,10.826,0,0,1,10.827-10.825h89.817a10.826,10.826,0,0,1,10.827,10.825V474.52a10.826,10.826,0,0,1-10.827,10.827" transform="translate(-269.811 -340.249)" fill="#383744"/><path d="M323.846,433.476H291.41a.82.82,0,0,1-.821-.82V400.22a.822.822,0,0,1,.821-.823h32.436a.822.822,0,0,1,.821.823v32.436a.82.82,0,0,1-.821.82m-31.615-1.641h30.793V401.042H292.232Z" transform="translate(-252.062 -323.891)" fill="#fff"/><path d="M305,425.141a.817.817,0,0,1-.58-.241l-10.512-10.512a.818.818,0,0,1,0-1.159l10.512-10.513a.82.82,0,0,1,1.161,0l10.513,10.513a.818.818,0,0,1,0,1.159L305.579,424.9a.811.811,0,0,1-.58.241m-9.351-11.333L305,423.159l9.351-9.351L305,404.457Z" transform="translate(-249.433 -321.261)" fill="#fff"/><path d="M318.971,398.762a4.876,4.876,0,1,1,4.875-4.875,4.88,4.88,0,0,1-4.875,4.875m0-8.109a3.233,3.233,0,1,0,3.234,3.234,3.238,3.238,0,0,0-3.234-3.234" transform="translate(-231.982 -332.763)" fill="#fff"/><path d="M308.9,406.732a.821.821,0,0,1-.58-1.4l12.362-12.357a.821.821,0,1,1,1.161,1.161l-12.362,12.357a.814.814,0,0,1-.58.241" transform="translate(-237.119 -329.583)" fill="#fff"/><path d="M285.26,398.762a4.876,4.876,0,1,1,4.875-4.875,4.881,4.881,0,0,1-4.875,4.875m0-8.109a3.233,3.233,0,1,0,3.234,3.234,3.238,3.238,0,0,0-3.234-3.234" transform="translate(-260.778 -332.763)" fill="#fff"/><path d="M297.287,406.732a.814.814,0,0,1-.58-.241l-12.362-12.357a.821.821,0,1,1,1.161-1.161l12.362,12.357a.821.821,0,0,1-.58,1.4" transform="translate(-257.601 -329.583)" fill="#fff"/><path d="M318.971,432.655a4.876,4.876,0,1,1,4.875-4.875,4.881,4.881,0,0,1-4.875,4.875m0-8.109a3.233,3.233,0,1,0,3.234,3.234,3.238,3.238,0,0,0-3.234-3.234" transform="translate(-231.982 -303.811)" fill="#fff"/><path d="M321.265,430.891a.822.822,0,0,1-.58-.241l-12.362-12.357a.821.821,0,0,1,1.161-1.163l12.362,12.357a.822.822,0,0,1-.58,1.4" transform="translate(-237.119 -308.948)" fill="#fff"/><path d="M285.26,432.655a4.876,4.876,0,1,1,4.875-4.875,4.881,4.881,0,0,1-4.875,4.875m0-8.109a3.233,3.233,0,1,0,3.234,3.234,3.238,3.238,0,0,0-3.234-3.234" transform="translate(-260.778 -303.811)" fill="#fff"/><path d="M284.925,430.891a.822.822,0,0,1-.58-1.4l12.362-12.357a.821.821,0,1,1,1.161,1.163L285.506,430.65a.822.822,0,0,1-.58.241" transform="translate(-257.601 -308.948)" fill="#fff"/><path d="M296.5,397.9a.813.813,0,0,1-.508-.176.822.822,0,0,1-.139-1.153A10.512,10.512,0,0,1,312.1,396.2a.822.822,0,1,1-1.246,1.072,8.863,8.863,0,0,0-13.7.311.832.832,0,0,1-.647.315" transform="translate(-247.712 -329.745)" fill="#fff"/><path d="M294.658,397.008a.823.823,0,0,1-.645-1.329,14.935,14.935,0,0,1,23.078-.523.822.822,0,0,1-1.246,1.072,13.291,13.291,0,0,0-20.539.465.823.823,0,0,1-.647.315" transform="translate(-249.287 -331.954)" fill="#fff"/><path d="M288.521,420.85a.8.8,0,0,1-.506-.176,10.51,10.51,0,0,1-.369-16.239.821.821,0,1,1,1.072,1.244,8.867,8.867,0,0,0,.311,13.7.821.821,0,0,1-.508,1.467" transform="translate(-257.7 -319.757)" fill="#fff"/><path d="M287.63,425.844a.813.813,0,0,1-.506-.176,14.932,14.932,0,0,1-.525-23.076.821.821,0,1,1,1.072,1.244,13.293,13.293,0,0,0,.465,20.541.82.82,0,0,1-.506,1.467" transform="translate(-259.91 -321.332)" fill="#fff"/><path d="M303.847,427.355a10.5,10.5,0,0,1-7.968-3.657.821.821,0,1,1,1.244-1.072,8.867,8.867,0,0,0,13.7-.312.821.821,0,1,1,1.29,1.014,10.453,10.453,0,0,1-8.272,4.026" transform="translate(-247.713 -304.581)" fill="#fff"/><path d="M305.359,430.722a14.916,14.916,0,0,1-11.322-5.2.82.82,0,1,1,1.244-1.07,13.293,13.293,0,0,0,20.539-.467A.821.821,0,0,1,317.113,425a14.852,14.852,0,0,1-11.754,5.72" transform="translate(-249.287 -303.153)" fill="#fff"/><path d="M314.608,420.85a.821.821,0,0,1-.536-1.443,8.87,8.87,0,0,0-.312-13.7.821.821,0,1,1,1.014-1.291,10.51,10.51,0,0,1,.369,16.239.821.821,0,0,1-.536.2" transform="translate(-232.536 -319.757)" fill="#fff"/><path d="M316.435,425.844a.821.821,0,0,1-.536-1.443,13.292,13.292,0,0,0-.467-20.541.821.821,0,0,1,1.014-1.292,14.937,14.937,0,0,1,.525,23.078.822.822,0,0,1-.536.2" transform="translate(-231.109 -321.332)" fill="#fff"/></g><g transform="translate(892.725 1291)"><g transform="translate(0)"><path d="M692.819,117.082a4.454,4.454,0,0,0,0,6.576,5.182,5.182,0,0,0,7.006,0,4.448,4.448,0,0,0,0-6.576A5.189,5.189,0,0,0,692.819,117.082Z" transform="translate(-669.258 -91.321)" fill="none" stroke="#000" stroke-linecap="round" stroke-linejoin="round" stroke-width="3"/><path d="M731.875,115.608a29.278,29.278,0,0,0-5.171-6.423,32.453,32.453,0,0,0-43.789,0,29.33,29.33,0,0,0-5.171,6.423" transform="translate(-677.745 -100.686)" fill="none" stroke="#000" stroke-linecap="round" stroke-linejoin="round" stroke-width="3"/><path d="M724.58,118.006a22.339,22.339,0,0,0-4.9-6.672,25.035,25.035,0,0,0-33.783,0,22.305,22.305,0,0,0-4.9,6.672" transform="translate(-675.721 -98.138)" fill="none" stroke="#000" stroke-linecap="round" stroke-linejoin="round" stroke-width="3"/><path d="M716.93,120.651a15.526,15.526,0,0,0-4.379-7.165,17.6,17.6,0,0,0-23.774,0,15.509,15.509,0,0,0-4.379,7.165" transform="translate(-673.6 -95.592)" fill="none" stroke="#000" stroke-linecap="round" stroke-linejoin="round" stroke-width="3"/></g></g></g></svg>