<svg xmlns="http://www.w3.org/2000/svg" width="206.145" height="208.822" viewBox="0 0 206.145 208.822"><g transform="translate(-1786 -2782.147)"><g transform="translate(1827.744 2790)"><g transform="translate(39.816 56.165)"><path d="M142.5,88.2s5.205,44.38,7.44,44.38,2.477,1.241,2.477-1.241-6.692-47.354-6.692-47.354Z" transform="translate(-42.433 -8.625)" fill="#f0d283" stroke="#010101" stroke-linecap="round" stroke-linejoin="round" stroke-width="0.25"/><path d="M132.435,83.113s5.205,44.384,7.436,44.384,2.481,1.237,2.481-1.241-6.7-47.358-6.7-47.358Z" transform="translate(-70.564 -22.834)" fill="#f0d283" stroke="#010101" stroke-linecap="round" stroke-linejoin="round" stroke-width="0.25"/><path d="M138.762,90.225s-5.205,44.38-7.436,44.38-2.481,1.241-2.481-1.241,6.7-47.354,6.7-47.354Z" transform="translate(-80.594 -2.964)" fill="#f0d283" stroke="#010101" stroke-linecap="round" stroke-linejoin="round" stroke-width="0.25"/><path d="M143.056,145.925s49.339,14.876,75.622-.247,28.014-73.638,9.917-78.847-40.416-2.974-50.333,7.193-44.134,43.883-57.769,50.329S128.181,143.941,143.056,145.925Z" transform="translate(-116.127 -64.12)" fill="#4e4d4d" stroke="#010101" stroke-miterlimit="10" stroke-width="0.25"/><path d="M137.789,135.984s53.8,11.9,68.68-6.449,25.043-54.051,13.388-59.5-30-6.2-36.694-.747-15.87,27.027-24.793,32.232-40.913,15.87-40.169,23.059S137.789,135.984,137.789,135.984Z" transform="translate(-110.366 -60.128)" fill="#343434" stroke="#010101" stroke-miterlimit="10" stroke-width="0.25"/></g><path d="M132.557,68.767s-4.443,18.207-3.748,19.956,5.319,1.787,5.82.816,9.625-14.743,7.842-18.6S133.753,64.472,132.557,68.767Z" transform="translate(-41.084 -1.18)" fill="#f2b487" stroke="#010101" stroke-linecap="round" stroke-linejoin="round" stroke-width="0.25"/><g transform="translate(24.205 92.869)"><path d="M128.143,95.035s-3.346,9.7-4.348,10.368-7.694.334-7.356-1.005,4.682-10.7,4.682-10.7S127.809,93.028,128.143,95.035Z" transform="translate(-99.677 -18.487)" fill="#d7db2f" stroke="#010101" stroke-linecap="round" stroke-linejoin="round" stroke-width="0.25"/><path d="M138.975,97.457s.455,4.465.019,5.087-3.782,1.81-5.376,2.216-10.828,3.646-16.477,2.451-5.554-2.489-4.7-3.471,5.653-2.455,10.308-3.684,5.676-4.541,6.723-4.594,3.361.376,3.426,1.294,1.775,2.474,2.739,1.764S138.133,96.482,138.975,97.457Z" transform="translate(-112.012 -13.276)" fill="#05ab9e" stroke="#010101" stroke-linecap="round" stroke-linejoin="round" stroke-width="0.25"/><path d="M136.5,95.8s2.356,11.548,2.716,12.273.725,3.612-3.251,3.972a8.631,8.631,0,0,1-6.5-2.166l-1.119-11.5S135.419,93.637,136.5,95.8Z" transform="translate(-66.363 -13.891)" fill="#d7db2f" stroke="#010101" stroke-linecap="round" stroke-linejoin="round" stroke-width="0.25"/><path d="M152.1,104.613s-11.218,7.25-18.112,8.673-8.324.827-8.976-.687,1.973-3.638,5.053-5.251,8.919-7.679,8.919-7.679,3.524,1.931,4.583,2.31,3.521-.421,3.65-1.62.08-2.845,1.165-2.595S152.969,102.082,152.1,104.613Z" transform="translate(-75.961 -6.899)" fill="#05ab9e" stroke="#010101" stroke-linecap="round" stroke-linejoin="round" stroke-width="0.25"/><path d="M179.2,73.795c-.842.076-40.18,1.518-49.851,7.2a19.827,19.827,0,0,0-4.568,3.589,7.892,7.892,0,0,0-3.847,2.079c-2.026,2.792-4.727,62.9-3.726,65.068s9.4.99,9.4.99c5.308-6.3,11.825-39.585,13.312-55.826,20.081.41,37.893,1.248,41.053-3.456C184.216,88.621,179.2,73.795,179.2,73.795Z" transform="translate(-98.103 -73.795)" fill="#35ae73" stroke="#010101" stroke-linecap="round" stroke-linejoin="round" stroke-width="0.25"/><path d="M178.353,75.846c-.8.231-45,6.821-51.429,18.7s9.287,60.758,9.4,63.334,7.421-1.483,7.421-1.483c5.937-5.937-1.7-40.613-.5-50.962.019-.156,38.386-5.4,40.6-10.642C186.107,89.439,178.353,75.846,178.353,75.846Z" transform="translate(-74.67 -68.065)" fill="#35ae73" stroke="#010101" stroke-linecap="round" stroke-linejoin="round" stroke-width="0.25"/></g><path d="M142.421,60.2s-7.159,5.945-9.614,12.759c-2.682,7.451-4.04,11.533-3.479,13.434s19.341,7.265,19.341,7.265S149.238,56.464,142.421,60.2Z" transform="translate(-39.778 -19.641)" fill="#35ae73" stroke="#010101" stroke-linecap="round" stroke-linejoin="round" stroke-width="0.25"/><path d="M135.551,64.86l.432-4.975L141.6,57.75l.588.3-2.118,5.641-3.64,2.913Z" transform="translate(-22.042 -25.754)" fill="#e1e5ef" stroke="#010101" stroke-linecap="round" stroke-linejoin="round" stroke-width="0.25"/><path d="M136.447,60.1l-.842,7.52,3.053,4.422,2.286-2.021.154-3.149.941-9.045Z" transform="translate(-21.89 -25.536)" fill="#f8f9fd" stroke="#010101" stroke-linecap="round" stroke-linejoin="round" stroke-width="0.25"/><path d="M148.688,57.457s.516,11.878,3.9,17.342-16.928,3.839-17.471,3.069-1.112-4.53-1.112-4.53,4.568-3.68,4.708-8.4-.527-6.324-.527-6.324S148.248,54.535,148.688,57.457Z" transform="translate(-26.348 -29.515)" fill="#f2b487" stroke="#010101" stroke-linecap="round" stroke-linejoin="round" stroke-width="0.25"/><g transform="translate(103.897 0)"><path d="M139.909,54.719s2.713-2.147,3.339-.58-.736,2.861-.994,4.295-2.162,2.493-2.933,2.254S139.909,54.719,139.909,54.719Z" transform="translate(-116.067 -37.442)" fill="#f2b487" stroke="#010101" stroke-linecap="round" stroke-linejoin="round" stroke-width="0.25"/><path d="M154.84,72.737s-7.819,7.117-11.81,7.352-9.443-7.872-9.629-13.855,1.354-14.587,6.37-15.794,16.162,4.716,16.8,6.059S156.206,71.109,154.84,72.737Z" transform="translate(-131.988 -46.624)" fill="#f2b487" stroke="#010101" stroke-linecap="round" stroke-linejoin="round" stroke-width="0.25"/><path d="M141.787,58.031s-2.952-1.624-4.094-.212-1.867,3.832-2.523,3.593-2.868-4.943-1.92-7.576,5.327-4.962,8.3-4.446,12.121,2.512,14.773,2.686,5.474,2.572,4.693,7.314-1.92,6.044-1.92,6.044a1.287,1.287,0,0,0-1.571.846c-.584,1.206-1.923,1.726-1.9.618s.186-7.637-2-8.908S145.937,60.349,141.787,58.031Z" transform="translate(-133.017 -49.316)" fill="#f0d283" stroke="#010101" stroke-linecap="round" stroke-linejoin="round" stroke-width="0.25"/><ellipse cx="1.162" cy="0.443" rx="1.162" ry="0.443" transform="translate(13.595 18.735) rotate(-88.596)" fill="#010101"/><ellipse cx="1.162" cy="0.443" rx="1.162" ry="0.443" transform="translate(5.626 18.54) rotate(-88.596)" fill="#010101"/><path d="M140.175,56.091a4.358,4.358,0,0,1-2.694,1.483,2.751,2.751,0,0,1-2.508-1.612" transform="translate(-127.552 -30.748)" fill="none" stroke="#010101" stroke-linecap="round" stroke-linejoin="round" stroke-width="0.25"/><path d="M136.8,54.319s-1.662.068-1.677.732,1.233,1.529,1.233,1.529" transform="translate(-127.124 -35.338)" fill="none" stroke="#010101" stroke-linecap="round" stroke-linejoin="round" stroke-width="0.25"/></g><path d="M123.586,70.046c.542-.057,27.035,2.269,30.711,5.672s4.211,5.421-.747,6.146-28.829-8.775-28.829-8.775S119.439,70.482,123.586,70.046Z" transform="translate(-59.91 8.597)" fill="#f2b487" stroke="#010101" stroke-linecap="round" stroke-linejoin="round" stroke-width="0.25"/><path d="M161.926,61.368s11.73,3.358,13.445,9.712c7.383,27.361,1.32,67.249-5.084,68.9-1.252.322-4.5-6.127-10.881-6.157-18.833-.1-28.359-10.171-29.019-11.522-.971-1.988,4.4-51.042,5.774-55.982.8-2.91,4.264-6.89,11.715-7.034C147.877,59.289,155.279,65.594,161.926,61.368Z" transform="translate(-36.793 -21.453)" fill="#35ae73" stroke="#010101" stroke-linecap="round" stroke-linejoin="round" stroke-width="0.25"/><path d="M120.028,78.51s-1.354,89.14,0,92.546,5.767,3.407,5.767,0,2.037-93.681-.338-94.25S120.028,78.51,120.028,78.51Z" transform="translate(-67.092 27.232)" fill="#e7e6e6" stroke="#010101" stroke-miterlimit="10" stroke-width="0.25"/><path d="M106.752,72.688s-1.316,86.423,0,89.728,5.588,3.3,5.588,0,1.973-90.828-.326-91.378S106.752,72.688,106.752,72.688Z" transform="translate(-104.137 11.125)" fill="#e7e6e6" stroke="#010101" stroke-miterlimit="10" stroke-width="0.25"/><path d="M134.462,77.96s-1.358,89.14,0,92.543,5.767,3.407,5.767,0,2.033-93.681-.341-94.246S134.462,77.96,134.462,77.96Z" transform="translate(-26.773 25.695)" fill="#e7e6e6" stroke="#010101" stroke-miterlimit="10" stroke-width="0.25"/><g transform="translate(0 75.469)"><path d="M215.225,93.192l10.99,1.795-.117,4.051-70.147,5.495L106.305,75.07l-.673-4.573,47.98,3.17Z" transform="translate(-105.632 -65.607)" fill="#7ba9b3" stroke="#010101" stroke-linecap="round" stroke-linejoin="round" stroke-width="0.25"/><path d="M226.214,98.588l-70.671,5.4L105.632,74.1l53.3-4.891Z" transform="translate(-105.632 -69.208)" fill="#98ccdc" stroke="#010101" stroke-linecap="round" stroke-linejoin="round" stroke-width="0.25"/></g><g transform="translate(26.504 79.048)"><path d="M183.672,90.546s-30.267,3.16-30.794,3.088S112.891,73.6,112.891,73.6l-.273-3.1L151.3,78.273l32.475,11.055Z" transform="translate(-112.617 -69.16)" fill="#5c5c5c" stroke="#010101" stroke-linecap="round" stroke-linejoin="round" stroke-width="0.25"/><path d="M183.773,90.32,152.79,91.925,112.618,71.5l25.124-1.346Z" transform="translate(-112.618 -70.152)" fill="#808181" stroke="#010101" stroke-linecap="round" stroke-linejoin="round" stroke-width="0.25"/></g><path d="M136.228,73.3a30.174,30.174,0,0,0-4.53,2.208,3.88,3.88,0,0,1-2.257,1.6.16.16,0,0,1-.068.015,2.848,2.848,0,0,0-1.859.379.473.473,0,0,1-.7-.353c-.228-.732.087-1.241.983-1.491-.36-.2-.448-.58-.964-.622a9.023,9.023,0,0,0-2.917.634c-.77.182-1.536.379-2.314.543a.934.934,0,0,1-.577-.065.625.625,0,0,1-.285-.436.507.507,0,0,1,.258-.395c.554-.262,1.123-.5,1.7-.717.66-.25,1.335-.474,2-.717.072-.027.175-.14.159-.182a.86.86,0,0,0-.209-.349c-.053-.053-.178-.046-.269-.038q-2.481.2-4.962.429c-.448.042-.668-.053-.782-.372-.121-.349-.023-.546.341-.63q1.258-.285,2.523-.562c.091-.019.178-.046.269-.068l-.008-.1-1.863.034a4.664,4.664,0,0,1-.565-.015.553.553,0,0,1-.478-.6c.011-.311.216-.421.493-.444.459-.034.914-.072,1.347-.106.019-.235-.027-.474.072-.592s.349-.148.535-.209a11.633,11.633,0,0,1,3.968-.2c.626.015,1.248-.023,1.87,0,.668.027,1.335.1,2,.163a3.9,3.9,0,0,1,.592.121c1.555.414,3.908.25,5.926.831" transform="translate(-69.471 7.93)" fill="#f2b487" stroke="#010101" stroke-linecap="round" stroke-linejoin="round" stroke-width="0.25"/><path d="M181.861,67.516s-6.613,9.644-8.236,12.22c-.558.884-1.62,2.379-1.8,2.307-5.027-1.984-32.221,6.514-32.744,6.783l-.114.064a11.913,11.913,0,0,0-2.944.489,8.985,8.985,0,0,1-2.056-.114,16.074,16.074,0,0,0-1.741-.19,9.2,9.2,0,0,1-2.659-.349,4.048,4.048,0,0,1-1.013-.664c-.175-.118-.266-.406-.573-.25a.649.649,0,0,0-.315.687,2.767,2.767,0,0,0,.118.535c-.379-.038-.74-.11-1.1-.11a16.666,16.666,0,0,0-4.42.417c-.281.076-.569.167-.573.524s.258.539.58.615a2.045,2.045,0,0,0,.455.053c1.085.03,2.174.053,3.259.08.046,0,.091.011.186.023-.7.429-1.358.823-2.011,1.229-.3.193-.592.406-.876.622-.349.258-.679.539-1.028.8-.379.281-.489.546-.33.838a.692.692,0,0,0,.967.266c.163-.072.322-.159.482-.243.892-.474,1.779-.956,2.678-1.411a2.506,2.506,0,0,1,.736-.167c.4-.065.808-.11,1.214-.156.243-.023.512-.137.725.231a4.82,4.82,0,0,0-2.667,1.8c-.379.383-.728.793-1.093,1.191-.209.224-.41.455-.634.668-.322.3-.387.562-.175.835a.653.653,0,0,0,.926.072c.952-.766,1.9-1.533,2.845-2.3a2.688,2.688,0,0,1,.421-.262c.391-.19.778-.391,1.18-.55a1.934,1.934,0,0,1,.561-.053l.019.129a2.705,2.705,0,0,1-.266.2,2.464,2.464,0,0,0-1.021,1.062,5.551,5.551,0,0,1-.372.489c-.174.262-.338.535-.493.808-.144.254-.266.52-.4.782s-.212.527.049.728a.534.534,0,0,0,.763-.08c.152-.156.281-.334.425-.5A13.727,13.727,0,0,1,130.367,96a4.441,4.441,0,0,1,2.265-1.013,18.983,18.983,0,0,0,4.215-.516,3.788,3.788,0,0,0,1.7-.926,1.357,1.357,0,0,1,.823-.364c.459-.042.971-.592,1.286-1.3,5.133-.156,30.59-.486,34.778-2.857,1.491-.842,15.782-12.626,15.782-12.626C192.191,74.645,181.861,67.516,181.861,67.516Z" transform="translate(-60.776 1.532)" fill="#f2b487" stroke="#010101" stroke-linecap="round" stroke-linejoin="round" stroke-width="0.25"/><path d="M113.113,62.645l-2.8-6.081s.478-1.555,5.793-.778,36.273,13.874,36.546,14.652-.546,53.626-1.089,54.092-3.232.671-3.232.671-19.269-47.9-20.088-48.527S113.113,62.645,113.113,62.645Z" transform="translate(-92.542 -31.85)" fill="#808181" stroke="#010101" stroke-linecap="round" stroke-linejoin="round" stroke-width="0.25"/><path d="M149.641,71.013s-38.469-17.736-39.164-14.967.5,47.855.5,47.855,37.714,21.924,37.714,20.733S149.641,71.013,149.641,71.013Z" transform="translate(-92.702 -31.333)" fill="#b4b4b4" stroke="#010101" stroke-linecap="round" stroke-linejoin="round" stroke-width="0.25"/><path d="M127.63,69.062l3.613,36.691-19.2-12.74,5.194-27.991Z" transform="translate(-87.708 -5.435)" fill="#808181" stroke="#010101" stroke-linecap="round" stroke-linejoin="round" stroke-width="0.25"/><path d="M136.447,88.208s10.9-27.391,15.346-26.606,8.24,5.528,5.535,14.864-5.08,18.719-5.08,18.719S137,89.263,136.447,88.208Z" transform="translate(-19.539 -15.037)" fill="#35ae73" stroke="#010101" stroke-linecap="round" stroke-linejoin="round" stroke-width="0.25"/></g><g transform="translate(1516.189 2423.471)"><path d="M296.3,440.037v-1.413a1.217,1.217,0,0,1,1.213-1.213H298.6a1.217,1.217,0,0,1,1.213,1.213v1.413a1.217,1.217,0,0,1-1.213,1.213H297.51a1.216,1.216,0,0,1-1.213-1.213" transform="translate(-13.201 -39.243)" fill="#282b38"/><path d="M291.831,436.1v-1.193a1.328,1.328,0,0,1,1.324-1.324h5.353a1.327,1.327,0,0,1,1.323,1.324V436.1a1.327,1.327,0,0,1-1.323,1.324h-5.353a1.328,1.328,0,0,1-1.324-1.324" transform="translate(-10.975 -37.335)" fill="#62687c"/><path d="M298.029,373.183h0c-.679,0-1.852-.555-1.852-1.235l.617-12.038a1.235,1.235,0,0,1,2.469,0l.617,12.038c0,.68-1.173,1.235-1.852,1.235" transform="translate(-13.142 0)" fill="#333744"/><path d="M297.035,408.677h-24.3a2.929,2.929,0,0,1-2.929-2.929V383.175a2.928,2.928,0,0,1,2.929-2.928h24.3a2.928,2.928,0,0,1,2.929,2.928v22.573a2.929,2.929,0,0,1-2.929,2.929" transform="translate(0 -10.752)" fill="#383744"/><path d="M299.585,408.615h-8.774a.222.222,0,0,1-.222-.222V399.62a.222.222,0,0,1,.222-.223h8.774a.222.222,0,0,1,.222.223v8.774a.222.222,0,0,1-.222.222m-8.552-.444h8.33v-8.33h-8.33Z" transform="translate(-10.356 -20.296)" fill="#fff"/><path d="M296.732,408.606a.221.221,0,0,1-.157-.065l-2.843-2.843a.221.221,0,0,1,0-.313l2.843-2.844a.222.222,0,0,1,.314,0l2.844,2.844a.221.221,0,0,1,0,.313l-2.844,2.843a.219.219,0,0,1-.157.065m-2.529-3.066,2.529,2.529,2.529-2.529-2.529-2.529Z" transform="translate(-11.89 -21.831)" fill="#fff"/><path d="M315.415,391.649a1.319,1.319,0,1,1,1.319-1.319,1.32,1.32,0,0,1-1.319,1.319m0-2.193a.874.874,0,1,0,.875.875.876.876,0,0,0-.875-.875" transform="translate(-22.073 -15.12)" fill="#fff"/><path d="M308.3,396.52a.222.222,0,0,1-.157-.379l3.344-3.342a.222.222,0,0,1,.314.314l-3.344,3.342a.22.22,0,0,1-.157.065" transform="translate(-19.075 -16.975)" fill="#fff"/><path d="M281.7,391.649a1.319,1.319,0,1,1,1.319-1.319,1.32,1.32,0,0,1-1.319,1.319m0-2.193a.874.874,0,1,0,.875.875.876.876,0,0,0-.875-.875" transform="translate(-5.27 -15.12)" fill="#fff"/><path d="M287.67,396.52a.22.22,0,0,1-.157-.065l-3.344-3.342a.222.222,0,0,1,.314-.314l3.344,3.342a.222.222,0,0,1-.157.379" transform="translate(-7.124 -16.975)" fill="#fff"/><path d="M315.415,425.542a1.319,1.319,0,1,1,1.319-1.319,1.32,1.32,0,0,1-1.319,1.319m0-2.193a.874.874,0,1,0,.875.875.876.876,0,0,0-.875-.875" transform="translate(-22.073 -32.013)" fill="#fff"/><path d="M311.648,420.678a.222.222,0,0,1-.157-.065l-3.344-3.342a.222.222,0,0,1,.314-.314l3.344,3.342a.222.222,0,0,1-.157.38" transform="translate(-19.075 -29.016)" fill="#fff"/><path d="M281.7,425.542a1.319,1.319,0,1,1,1.319-1.319,1.32,1.32,0,0,1-1.319,1.319m0-2.193a.874.874,0,1,0,.875.875.876.876,0,0,0-.875-.875" transform="translate(-5.27 -32.013)" fill="#fff"/><path d="M284.326,420.678a.222.222,0,0,1-.157-.38l3.344-3.342a.222.222,0,0,1,.314.314l-3.344,3.342a.222.222,0,0,1-.157.065" transform="translate(-7.124 -29.016)" fill="#fff"/><path d="M295.9,393.993a.22.22,0,0,1-.137-.048.222.222,0,0,1-.038-.312,2.844,2.844,0,0,1,4.393-.1.222.222,0,1,1-.337.29,2.4,2.4,0,0,0-3.706.084.225.225,0,0,1-.175.085" transform="translate(-12.894 -16.881)" fill="#fff"/><path d="M294.06,391.865a.222.222,0,0,1-.175-.36,4.04,4.04,0,0,1,6.243-.141.222.222,0,0,1-.337.29,3.6,3.6,0,0,0-5.556.126.223.223,0,0,1-.175.085" transform="translate(-11.976 -15.592)" fill="#fff"/><path d="M285.215,408.73a.217.217,0,0,1-.137-.048,2.843,2.843,0,0,1-.1-4.393.222.222,0,1,1,.29.337,2.4,2.4,0,0,0,.084,3.707.222.222,0,0,1-.137.4" transform="translate(-7.067 -22.708)" fill="#fff"/><path d="M283.087,408.736a.22.22,0,0,1-.137-.048,4.039,4.039,0,0,1-.142-6.242.222.222,0,1,1,.29.337,3.6,3.6,0,0,0,.126,5.556.222.222,0,0,1-.137.4" transform="translate(-5.777 -21.79)" fill="#fff"/><path d="M297.89,423.45a2.841,2.841,0,0,1-2.155-.989.222.222,0,1,1,.337-.29,2.4,2.4,0,0,0,3.707-.084.222.222,0,1,1,.349.274,2.828,2.828,0,0,1-2.237,1.089" transform="translate(-12.894 -31.563)" fill="#fff"/><path d="M296.954,425.58a4.035,4.035,0,0,1-3.063-1.406.222.222,0,1,1,.337-.289,3.6,3.6,0,0,0,5.556-.126.222.222,0,0,1,.35.274,4.018,4.018,0,0,1-3.179,1.547" transform="translate(-11.975 -32.397)" fill="#fff"/><path d="M313.761,408.73a.222.222,0,0,1-.145-.39,2.4,2.4,0,0,0-.084-3.707.222.222,0,1,1,.274-.349,2.843,2.843,0,0,1,.1,4.393.222.222,0,0,1-.145.054" transform="translate(-21.749 -22.708)" fill="#fff"/><path d="M315.474,408.736a.222.222,0,0,1-.145-.39,3.6,3.6,0,0,0-.126-5.556.222.222,0,0,1,.274-.35,4.04,4.04,0,0,1,.142,6.243.222.222,0,0,1-.145.054" transform="translate(-22.582 -21.79)" fill="#fff"/></g></g></svg>