<svg width="73" height="77" viewBox="0 0 73 77" fill="none" xmlns="http://www.w3.org/2000/svg">
<path d="M34.6775 20.8755C26.6524 20.8755 20.1187 27.4092 20.1187 35.4344C20.1187 43.4595 26.6524 50.0288 34.6775 50.0288C42.7027 50.0288 49.2364 43.495 49.2364 35.4344C49.2364 27.3737 42.7027 20.8755 34.6775 20.8755ZM34.6775 48.4308C27.5046 48.4308 21.6811 42.6073 21.6811 35.4344C21.6811 28.2615 27.5046 22.4734 34.6775 22.4734C41.8505 22.4734 47.674 28.297 47.674 35.4344C47.674 42.5718 41.8505 48.4308 34.6775 48.4308Z" fill="#61D6FF"/>
<path d="M31.6943 34.582C31.6943 34.582 31.9428 34.582 32.0494 34.5109C32.3334 34.3689 32.4755 34.1203 32.4755 33.8008C32.4755 30.9245 28.8535 30.9245 28.8535 33.8008C28.8535 34.0848 29.0311 34.3689 29.2796 34.5109C29.5637 34.653 29.8833 34.6175 30.0963 34.4399L30.629 34.0138L31.1616 34.4399C31.1616 34.4399 31.4812 34.6175 31.6588 34.6175L31.6943 34.582Z" fill="#61D6FF"/>
<path d="M37.0209 33.8009C37.0209 34.085 37.1984 34.369 37.447 34.5111C37.731 34.6531 38.0506 34.6176 38.2637 34.4401L38.7963 34.0139L39.329 34.4401C39.329 34.4401 39.6486 34.6176 39.8261 34.6176C39.9326 34.6176 40.0747 34.6176 40.1812 34.5466C40.4653 34.4046 40.6073 34.156 40.6073 33.8364C40.6073 30.9601 36.9854 30.9601 36.9854 33.8364L37.0209 33.8009Z" fill="#61D6FF"/>
<path d="M38.0509 36.4999C37.6958 36.3578 37.2697 36.4999 37.0921 36.8905C36.666 37.8847 35.7427 38.5239 34.713 38.5239C33.6832 38.5239 32.7955 37.9203 32.3693 36.9615C32.1918 36.6064 31.7657 36.4289 31.4106 36.6064C31.0555 36.784 30.8779 37.2101 31.0555 37.5652C31.7302 39.0211 33.1506 39.9798 34.713 39.9798C36.2754 39.9798 37.8023 38.9855 38.4415 37.4231C38.5835 37.068 38.4415 36.6419 38.0509 36.4644V36.4999Z" fill="#61D6FF"/>
<path d="M3.96151 55.6035L4.42313 54.7512C4.56517 54.4672 4.77823 54.2186 5.02679 54.0766C5.16883 53.9345 5.27536 53.8635 5.45291 53.828C3.96151 50.135 3.1803 46.1224 3.1803 42.0033C3.1803 31.0664 8.7908 21.4078 17.2776 15.7618L17.029 15.3002L16.9225 15.0871L15.6086 14.377L15.076 14.0574C6.26963 20.2005 0.51709 30.4628 0.51709 42.0033C0.51709 46.9747 1.58237 51.804 3.64192 56.1716L3.96151 55.6035Z" fill="#61D6FF"/>
<path d="M61.6644 22.2248C61.6644 22.2248 61.5579 22.4024 61.4868 22.4734C61.2028 22.8285 60.9187 23.1481 60.6346 23.4321C60.4926 23.5742 60.3505 23.7162 60.2085 23.8227C62.268 26.7345 63.866 30.0014 64.8247 33.5168L65.2153 32.8066L65.4284 32.416C65.6415 31.9899 65.9965 31.6703 66.4227 31.4928C66.6002 31.3863 66.7778 31.3507 66.9553 31.3152C65.819 27.8353 64.1145 24.6039 62.0195 21.7632C61.913 21.9407 61.8064 22.0828 61.6644 22.2248Z" fill="#61D6FF"/>
<path d="M25.0188 10.187C25.4449 10.4356 25.7645 10.7907 25.942 11.2168C26.013 11.3588 26.0485 11.5364 26.084 11.7139C28.7828 10.9682 31.659 10.5421 34.6063 10.5421C36.3818 10.5421 38.1218 10.6842 39.8262 10.9682C39.8262 10.7907 39.7907 10.6131 39.7907 10.4356C39.7907 9.90295 39.7197 9.3703 39.7197 8.83766C39.7197 8.66011 39.7197 8.44706 39.7552 8.26951C38.0507 8.02094 36.3463 7.87891 34.6063 7.87891C30.8778 7.87891 27.2559 8.48257 23.918 9.58336L24.6282 9.97397L25.0188 10.187Z" fill="#61D6FF"/>
<path d="M67.3457 45.1287C67.0261 45.1287 66.7065 45.0577 66.4224 44.9156C66.2094 44.8446 66.0318 44.7381 65.8898 44.5605C65.2861 52.1596 61.8772 59.297 56.3732 64.5879C56.2312 64.2683 56.0537 63.9842 55.8761 63.6646C55.6275 63.203 55.3435 62.7414 55.0594 62.3153C54.8108 61.8892 54.5268 61.4631 54.2072 61.0725C54.2072 61.037 54.1362 61.0014 54.1006 60.9304C53.8166 60.5398 53.497 60.1492 53.1774 59.7941C52.8223 59.4035 52.4672 59.0129 52.0766 58.6578C51.7215 58.3027 51.3309 57.9476 50.9403 57.5925C50.5497 57.2729 50.1591 56.9534 49.733 56.6338C49.3069 56.3142 48.8807 56.0301 48.4546 55.746C48.0285 55.462 47.5669 55.2134 47.1053 54.9648C46.7147 54.7518 46.2886 54.5387 45.8624 54.3257C45.8269 54.1836 45.7559 54.0771 45.6494 53.9706L42.4535 50.9878C42.4535 50.9878 42.0274 50.7392 41.7788 50.8102L34.748 52.0886L27.7171 50.8102C27.4685 50.7392 27.22 50.8102 27.0424 50.9878L23.8466 53.9706C23.8466 53.9706 23.669 54.1836 23.669 54.2901C21.2544 55.3554 19.0528 56.8823 17.1353 58.7999C16.6381 59.2615 16.212 59.7586 15.7859 60.2912C15.4308 60.6819 15.1112 61.108 14.8272 61.5341C14.5076 61.9602 14.2235 62.3863 13.9749 62.8124C13.6908 63.2385 13.4423 63.6647 13.2647 64.0908C13.1582 64.1973 13.1227 64.3038 13.0872 64.4104C13.0517 64.4814 12.9807 64.5524 12.9807 64.6234C12.9451 64.6234 12.9096 64.6944 12.9096 64.7299C11.8088 63.6646 10.7791 62.5639 9.85582 61.3565L9.35869 61.6051L9.07461 61.7826L8.43544 62.919L8.22239 63.3096C8.22239 63.3096 8.18688 63.3806 8.15137 63.4161C9.25216 64.8365 10.5305 66.1503 11.9154 67.3931C11.9509 67.4642 12.0219 67.4997 12.0929 67.5707C18.3071 73.0392 26.2967 76.0575 34.6059 76.0575C42.9152 76.0575 51.0113 73.0036 57.2255 67.4287C63.7947 61.6051 67.8428 53.4734 68.553 44.7736C68.3755 44.8801 68.1979 44.9512 67.9848 45.0222C67.7718 45.0932 67.5587 45.1287 67.3457 45.1287ZM25.4445 54.6097L27.0779 53.0473L27.8236 52.3726L29.102 52.6212L33.3631 53.4024L33.0435 53.8285L29.173 59.1905L25.8351 55.1069L25.4445 54.6097ZM40.323 52.6212H40.394L41.6723 52.3726L42.418 53.0828L44.087 54.6097L43.6609 55.1069L40.323 59.1905L36.4524 53.8285L36.1684 53.4024L40.3585 52.6212H40.323ZM47.7799 57.2019C48.2061 57.4505 48.5967 57.7346 48.9873 58.0542C49.5909 58.4803 50.1591 58.9774 50.6917 59.51C50.9758 59.7586 51.2244 60.0072 51.4729 60.2912C51.757 60.5398 52.0056 60.8239 52.2541 61.1435C52.5737 61.4986 52.8578 61.8892 53.1419 62.2798C53.3904 62.5994 53.6035 62.9189 53.8166 63.274C54.3137 64.0553 54.7753 64.8365 55.1659 65.6887C49.662 70.518 42.7021 73.1812 35.4226 73.3587V55.1069L39.6838 60.9304C39.6838 60.9304 40.0389 61.2145 40.2874 61.25C40.536 61.25 40.7491 61.1435 40.8911 60.9659L45.1522 55.746C46.04 56.1366 46.9277 56.6338 47.7799 57.2019ZM15.5728 63.203C15.8214 62.8124 16.1055 62.4218 16.4251 62.0667C16.9577 61.321 17.5969 60.6108 18.2716 59.9362C20.047 58.1252 22.1066 56.7048 24.3437 55.7105L28.6048 60.9659C28.6048 60.9659 28.9599 61.25 29.2085 61.25C29.4571 61.2145 29.6701 61.108 29.8122 60.9304L33.8602 55.3909V73.3587C26.5808 73.2167 19.6564 70.589 14.1525 65.8307C14.259 65.5467 14.401 65.2626 14.5431 64.9785C14.8271 64.3748 15.1822 63.7712 15.5728 63.203Z" fill="#61D6FF"/>
<path d="M41.6727 11.359C42.0988 15.052 43.5902 18.6739 45.7918 21.3371C47.8158 23.7518 50.266 25.1722 53.0357 25.3852C55.2373 25.2077 57.3323 24.1779 59.1078 22.4024C59.2499 22.2604 59.3919 22.1184 59.4984 21.9763C59.7115 21.7988 59.9245 21.5502 60.1021 21.3371C60.2441 21.1596 60.3862 20.982 60.5282 20.769C60.6702 20.627 60.7768 20.4849 60.8833 20.3074C63.44 16.6854 64.7893 11.7141 64.3632 7.20437C64.3277 6.99131 64.2212 6.77825 64.0792 6.67173C63.9371 6.52969 63.7596 6.49418 63.582 6.49418H63.4755C63.1914 6.49418 62.8718 6.49418 62.5522 6.49418C58.3621 6.49418 54.9887 3.47587 53.6394 1.27428C53.4618 1.02572 53.2133 0.919189 52.9647 0.919189C52.6806 0.919189 52.432 1.02572 52.29 1.27428C50.9051 3.47587 47.5672 6.49418 43.3771 6.49418C43.0575 6.49418 42.738 6.49418 42.4184 6.49418H42.3118C42.3118 6.49418 41.9567 6.49418 41.8502 6.67173C41.6727 6.77825 41.5661 6.99131 41.5661 7.20437C41.4951 7.66599 41.4951 8.12761 41.4951 8.58924V9.15739C41.4951 9.69003 41.5306 10.2582 41.6016 10.7908C41.6016 11.0039 41.6372 11.1814 41.6727 11.359ZM54.1365 14.0577L57.1903 11.0039C57.6519 10.5423 58.3976 10.5423 58.8593 11.0039C59.3209 11.4655 59.3209 12.2112 58.8593 12.6728L56.0185 15.5136L55.6279 15.9042L54.5271 17.005L54.1365 17.3956L53.4263 18.1058C53.1777 18.3188 52.8937 18.4609 52.5741 18.4609C52.2545 18.4609 51.9704 18.3188 51.7574 18.1058L48.384 14.7679C48.0644 14.4483 47.9578 14.0222 48.0999 13.6316C48.1354 13.454 48.2419 13.2765 48.3484 13.1345H48.384C48.8456 12.6373 49.5913 12.6373 50.0529 13.0989L52.361 15.4071L52.5741 15.6201H52.6096L53.7104 14.4838L54.1365 14.0577Z" fill="#829FD9"/>
<path d="M8.79074 59.9003L9.74949 59.3677C9.74949 59.3677 9.96255 59.1546 9.96255 59.0126C9.96255 58.8706 9.85602 58.7285 9.74949 58.6575L7.76096 57.5922L6.66017 55.6037C6.66017 55.6037 6.44711 55.3906 6.30507 55.3906C6.26956 55.3906 6.19854 55.3906 6.16304 55.4261C6.09202 55.4616 5.98549 55.4972 5.94998 55.6037L5.80794 55.8522L4.9202 57.5567H4.88469L4.45858 57.8408L2.89616 58.6575C2.89616 58.6575 2.68311 58.8706 2.68311 59.0126C2.68311 59.1546 2.75412 59.2967 2.89616 59.3677L4.88469 60.4685L5.94998 62.457C5.94998 62.457 6.16304 62.6701 6.30507 62.6701C6.44711 62.6701 6.58915 62.5635 6.66017 62.457L6.97975 61.8889L7.26383 61.3917L7.76096 60.4685L8.2936 60.1844L8.79074 59.9003Z" fill="#61D6FF"/>
<path d="M16.7096 12.9568L17.3133 13.2764L18.2365 13.7735L18.5561 14.3417L18.8047 14.8388L19.6214 16.3302C19.6214 16.3302 19.799 16.5077 19.9055 16.5077C20.0475 16.5077 20.154 16.4367 20.2251 16.3302L21.6099 13.7735L24.1666 12.3531H24.2021C24.2021 12.3531 24.3442 12.1756 24.3442 12.0691C24.3442 11.9625 24.3087 11.856 24.2021 11.785H24.1666L22.3556 10.7552L21.7165 10.4356L21.6099 10.3646L20.2251 7.80792C20.2251 7.80792 20.0475 7.63037 19.9055 7.63037C19.799 7.63037 19.6924 7.70139 19.6214 7.80792L18.2365 10.3646L15.6443 11.7495C15.6443 11.7495 15.4668 11.927 15.4668 12.0691C15.4668 12.2111 15.5378 12.3176 15.6443 12.3531L16.7096 12.9568Z" fill="#61D6FF"/>
<path d="M72.2818 37.8492L69.299 36.2158L67.7011 33.2685C67.7011 33.2685 67.5591 33.1264 67.488 33.0909C67.4525 33.0554 67.3815 33.0554 67.346 33.0554C67.204 33.0554 67.0619 33.1264 66.9909 33.2685H66.9554L65.8546 35.2925L65.4285 36.0737L65.3575 36.2158L62.3747 37.8492C62.3747 37.8492 62.1616 38.0623 62.1616 38.2043C62.1616 38.3463 62.2681 38.4884 62.3747 38.5594L65.3575 40.1928L65.9966 41.3291L66.5648 42.3589L66.9909 43.1401C66.9909 43.1401 67.204 43.3532 67.346 43.3532C67.488 43.3532 67.6301 43.2822 67.7011 43.1401L68.1272 42.3589L68.6599 41.4002L69.299 40.1928L72.2818 38.5594C72.2818 38.5594 72.4949 38.3463 72.4949 38.2043C72.4949 38.0623 72.4239 37.9202 72.2818 37.8492Z" fill="#61D6FF"/>
</svg>
