<svg width="80" height="73" viewBox="0 0 80 73" fill="none" xmlns="http://www.w3.org/2000/svg">
<path d="M35.457 8.60136L31.9785 6.71717L35.457 4.79675L37.3774 1.35449L39.2616 4.79675L42.7401 6.71717L39.2616 8.60136L37.3774 12.0799L35.457 8.60136Z" fill="#61D6FF"/>
<path d="M42.9205 6.3181L39.587 4.47015L37.739 1.1366C37.5941 0.846721 37.1231 0.846721 36.9419 1.1366L35.1302 4.47015L31.7604 6.3181C31.7604 6.3181 31.543 6.53551 31.543 6.71668C31.543 6.86162 31.6154 7.04279 31.7604 7.11526L35.1302 8.92697L36.9419 12.2968C36.9419 12.2968 37.1955 12.5142 37.3405 12.5142C37.5216 12.5142 37.6666 12.4417 37.739 12.2968L39.587 8.92697L42.9205 7.11526C42.9205 7.11526 43.1742 6.86162 43.1742 6.71668C43.1742 6.53551 43.0655 6.39057 42.9205 6.3181ZM38.8623 8.38346L37.3405 11.1373L35.8549 8.38346C35.8549 8.38346 35.7461 8.23852 35.6737 8.20229L32.9199 6.71668L35.6737 5.19484C35.6737 5.19484 35.8186 5.12237 35.8549 5.01367L37.3405 2.29609L38.8623 5.01367C38.8623 5.01367 38.971 5.1586 39.0435 5.19484L41.761 6.71668L39.0435 8.20229C39.0435 8.20229 38.8985 8.31099 38.8623 8.38346Z" fill="#61D6FF"/>
<path d="M15.5642 63.4967L13.209 62.2285L15.5642 60.9241L16.8687 58.5688L18.1369 60.9241L20.4921 62.2285L18.1369 63.4967L16.8687 65.8882L15.5642 63.4967Z" fill="#61D6FF"/>
<path d="M20.7098 61.8292L18.4633 60.5972L17.2313 58.3507C17.2313 58.3507 17.0139 58.1333 16.869 58.1333C16.6878 58.1333 16.5429 58.2058 16.4704 58.3507L15.2384 60.5972L12.9919 61.8292C12.9919 61.8292 12.7383 62.0466 12.7383 62.2278C12.7383 62.3727 12.847 62.5539 12.9919 62.6264L15.2384 63.8583L16.4704 66.1048C16.4704 66.1048 16.6878 66.3223 16.869 66.3223C17.0139 66.3223 17.1589 66.2498 17.2313 66.1048L18.4633 63.8583L20.7098 62.6264C20.7098 62.6264 20.9635 62.3727 20.9635 62.2278C20.9635 62.0466 20.8548 61.9017 20.7098 61.8292ZM17.7386 63.2786L16.869 64.9091L15.9631 63.2786C15.9631 63.2786 15.8544 63.1699 15.782 63.0974L14.1514 62.2278L15.782 61.3219C15.782 61.3219 15.9269 61.2132 15.9631 61.1408L16.869 59.5102L17.7386 61.1408C17.7386 61.1408 17.8473 61.2857 17.9198 61.3219L19.5503 62.2278L17.9198 63.0974C17.9198 63.0974 17.7749 63.2061 17.7386 63.2786Z" fill="#61D6FF"/>
<path d="M74.446 53.4955L72.0908 52.1911L74.446 50.9229L75.7143 48.5676L77.0187 50.9229L79.3739 52.1911L77.0187 53.4955L75.7143 55.8507L74.446 53.4955Z" fill="#61D6FF"/>
<path d="M79.5554 51.792L77.3451 50.56L76.1132 48.3497C75.9682 48.0599 75.4609 48.0599 75.316 48.3497L74.084 50.56L71.8375 51.792C71.8375 51.792 71.6201 52.0456 71.6201 52.1906C71.6201 52.3717 71.6926 52.5167 71.8375 52.5891L74.084 53.8211L75.316 56.0676C75.316 56.0676 75.5334 56.285 75.7146 56.285C75.8958 56.285 76.0407 56.2126 76.1132 56.0676L77.3451 53.8211L79.5554 52.5891C79.5554 52.5891 79.8091 52.3717 79.8091 52.1906C79.8091 52.0456 79.7004 51.8645 79.5554 51.792ZM76.6204 53.2776L75.7146 54.9081L74.8087 53.2776C74.8087 53.2776 74.7 53.1327 74.6276 53.0964L72.997 52.1906L74.6276 51.3209C74.6276 51.3209 74.7725 51.2122 74.8087 51.1398L75.7146 49.5092L76.6204 51.1398C76.6204 51.1398 76.6929 51.2485 76.8016 51.3209L78.3959 52.1906L76.8016 53.0964C76.8016 53.0964 76.6567 53.2051 76.6204 53.2776Z" fill="#61D6FF"/>
<path d="M10.3824 44.4725L11.5781 50.2338L6.68647 55.2341C5.99802 55.9226 5.05593 56.2849 4.15007 56.2849C3.24421 56.2849 2.26588 55.9226 1.57743 55.2341C0.164294 53.821 0.164294 51.5382 1.57743 50.1251L20.2019 31.3557C19.296 33.3486 18.6438 35.3777 18.2815 37.3706L11.3607 42.1535C10.5998 42.6608 10.2012 43.5667 10.3824 44.4725Z" fill="#61D6FF"/>
<path d="M33.7179 30.3773C33.7179 30.3773 33.5367 30.5223 33.4643 30.5947C31.6526 32.189 30.2757 34.1819 29.4423 36.356L27.4494 34.3631L13.8977 47.9147L13.1006 44.2188L20.7823 38.9286L20.891 38.3489C21.2171 36.1748 21.9418 33.9645 23.0288 31.7542L23.2824 31.2107L22.5215 29.0367L24.8767 26.6814C26.2899 25.2683 28.6089 25.2683 30.022 26.6814L33.7179 30.3773Z" fill="#61D6FF"/>
<path d="M64.7697 52.8429C65.8568 50.7775 66.5452 48.6035 66.9438 46.2482L67.0163 45.6685L74.6617 40.3783L72.9225 31.7907L65.4944 30.3414L58.7186 37.1172C60.8202 43.0958 59.1172 49.7992 54.3705 54.0386C51.2543 56.8286 47.1961 58.2418 43.0292 57.9881C38.826 57.7707 34.9851 55.8866 32.1951 52.7704C28.3543 48.4585 27.1948 42.3712 29.2239 36.936C29.2963 36.7548 29.3688 36.5374 29.4413 36.3563C30.2747 34.1822 31.6516 32.1893 33.4633 30.595C33.5358 30.5225 33.6082 30.4501 33.7169 30.3776C33.7894 30.3051 33.8256 30.2689 33.8981 30.2327C36.6157 27.9137 40.2029 26.573 43.8988 26.573C44.0799 26.573 44.2249 26.6092 44.4061 26.6092H44.8046C47.6309 26.7904 50.276 27.6963 52.595 29.2181L58.32 23.4568H58.2838L57.6316 14.6881L49.2615 11.9343L43.1741 19H42.5581C40.3478 19.1087 38.0651 19.5798 35.7823 20.4132L35.2388 20.5943L26.7962 16.6086L20.274 22.4423L22.5205 29.0369L23.2815 31.211L23.0278 31.7545C21.9408 33.9648 21.2161 36.1751 20.89 38.3491L20.7813 38.9289L13.0996 44.2191L13.8968 47.915L14.9113 52.8429L24.0786 54.6184L24.4047 55.1256C24.912 55.9953 25.6004 56.9011 26.4701 57.8794C27.231 58.7853 28.0644 59.5825 28.9702 60.3434L29.4413 60.7057L30.2022 69.9455L38.5361 72.6993L44.6597 65.6698H45.2394C47.5584 65.5249 49.8412 65.0176 52.0153 64.2204L52.5225 64.003L60.9651 67.9888L67.5235 62.1551L64.4799 53.3864L64.7697 52.8429Z" fill="#829FD9"/>
<path d="M61.0367 22.7324L60.0584 23.6745L52.7391 30.9938L51.7607 31.9722C51.7607 31.9722 51.8694 32.0084 51.9057 32.0446L52.8478 32.8056L61.0005 24.6166L61.9426 23.6383L61.0367 22.7324ZM64.5877 27.4066L55.5653 36.4652L55.8915 37.2986C55.8915 37.2986 56.0364 37.6972 56.0726 37.8784L66.2182 27.7328L64.5877 27.4066Z" fill="white"/>
<path d="M77.5968 11.8621L76.0749 24.3267C76.0025 24.8339 75.3503 25.0513 74.9517 24.6528L72.0892 21.7903L46.0729 47.879C44.7323 49.2559 42.3046 49.2559 40.9639 47.879L31.543 38.458C31.6154 38.2406 31.6879 38.0595 31.7604 37.8421C32.4488 35.8492 33.6446 34.0375 35.2751 32.6243L35.565 32.3707L35.6374 32.2982L43.5365 40.1973L51.7617 31.9721L52.74 30.9938L60.0594 23.6744L61.0377 22.7323L66.9801 16.6812L64.0451 13.7462C63.6466 13.3477 63.864 12.6954 64.4075 12.623L76.8359 11.1011C77.2707 11.0649 77.633 11.4272 77.5968 11.8621Z" fill="#61D6FF"/>
</svg>
