<svg width="205" height="73" viewBox="0 0 205 73" fill="none" xmlns="http://www.w3.org/2000/svg">
<path d="M81.6462 35.7121C83.9474 32.3129 84.601 29.3815 83.5487 28.3292C83.2219 28.0024 82.7147 27.8399 82.0682 27.8399C80.6317 27.8399 78.5101 28.647 76.1667 30.2326C77.1382 30.9832 78.1177 31.8424 79.0766 32.8013C80.0355 33.7602 80.8956 34.7397 81.6462 35.713" fill="white"/>
<path d="M71.3633 32.8004C72.3213 31.8424 73.2999 30.9823 74.2732 30.2317C71.9298 28.6461 69.8074 27.839 68.3717 27.839C67.7253 27.839 67.2189 28.0015 66.8912 28.3283C65.8389 29.3806 66.4925 32.312 68.7937 35.7112C69.5443 34.7388 70.4044 33.7593 71.3633 32.7995" fill="white"/>
<path d="M80.9711 36.6575C80.216 35.6501 79.3236 34.614 78.2937 33.5833C77.263 32.5526 76.2278 31.6647 75.2196 30.9087C74.2113 31.6638 73.1761 32.5526 72.1454 33.5833C71.1146 34.614 70.2231 35.6501 69.468 36.6575C70.2231 37.6649 71.1146 38.701 72.1454 39.7317C73.1761 40.7624 74.2113 41.654 75.2196 42.409C76.2269 41.654 77.263 40.7624 78.2937 39.7317C79.3245 38.701 80.216 37.6649 80.9711 36.6575Z" fill="white"/>
<path d="M68.7937 37.6029C66.4925 41.003 65.8389 43.9336 66.8912 44.9867C67.9434 46.039 70.8749 45.3854 74.275 43.0842C73.3017 42.3336 72.3222 41.4735 71.3633 40.5146C70.4044 39.5557 69.5443 38.5762 68.7937 37.6029Z" fill="white"/>
<path d="M84.3307 45.7687C83.7822 46.3173 83.0046 46.5786 82.0673 46.5786C80.2312 46.5786 77.7792 45.5721 75.2195 43.7756C72.6598 45.5721 70.2078 46.5786 68.3717 46.5786C67.4344 46.5786 66.6569 46.3173 66.1083 45.7687C64.4832 44.1437 65.3819 40.5236 68.097 36.6575C65.3828 32.7905 64.4841 29.1714 66.1083 27.5463C67.7334 25.9212 71.3525 26.8208 75.2195 29.535C79.0865 26.8208 82.7057 25.9221 84.3307 27.5463C85.9558 29.1714 85.0562 32.7905 82.342 36.6575C85.0571 40.5245 85.9558 44.1437 84.3307 45.7687ZM56.2949 54.4751H27.9108C23.3031 54.4751 19.5555 50.7275 19.5555 46.1198V27.1952C19.5555 22.5884 23.304 18.84 27.9108 18.84H56.2949V54.4751ZM58.0251 17.7329H27.9108C22.6845 17.7329 18.4485 21.9698 18.4485 27.1952V46.1198C18.4485 51.3452 22.6845 55.5821 27.9108 55.5821H84.6818C89.9072 55.5821 94.1441 51.3452 94.1441 46.1198V17.7329H58.0251Z" fill="white"/>
<path d="M79.0767 40.5137C78.1178 41.4726 77.1382 42.3327 76.165 43.0833C79.5651 45.3845 82.4965 46.0381 83.5488 44.9849C84.601 43.9327 83.9474 41.0012 81.6463 37.602C80.8957 38.5744 80.0355 39.5548 79.0767 40.5137Z" fill="white"/>
<path d="M31.5802 30.2955C33.1541 30.2955 34.7307 30.6483 35.3314 32.8426H37.3479V36.1906C34.8331 34.1229 29.3805 35.4203 28.7915 32.8462C28.4818 31.4923 29.833 30.2955 31.5793 30.2955M26.4347 29.2504C25.4193 30.5163 24.9659 32.2447 25.2801 33.6525C26.0926 37.2986 29.4757 37.8804 31.9609 38.2036C33.9227 38.4586 35.8 38.815 35.7498 40.5631C35.6986 42.3776 33.6524 42.8239 32.3101 42.8239C28.8131 42.8239 28.6946 40.2399 28.6946 40.2399H24.9335C24.9883 41.2095 25.2819 42.7682 26.4769 44.106C27.786 45.5712 29.7477 46.3137 32.3101 46.3137C34.2755 46.3137 36.0658 45.6736 37.3488 44.536V46.0992H40.8557V41.6342L42.0975 40.2758L45.6403 46.0983H49.7228L44.5674 37.5706L49.7246 31.9187H45.1806L40.8575 36.653V27.1943H37.3506V29.4865C37.2366 29.3384 37.1154 29.192 36.9798 29.0484C35.704 27.698 33.867 27.0139 31.5174 27.0139C28.8005 27.0139 27.2553 28.2295 26.4383 29.2504" fill="white"/>
<path d="M103.073 43.6597C103.308 43.7387 103.583 43.7773 103.897 43.7773C104.29 43.7773 104.604 43.6597 104.839 43.4245C105.075 43.1893 105.231 42.875 105.31 42.5222L100.324 31.96H103.642L106.843 39.5378L109.651 31.96H112.811L108.315 42.3651C107.727 43.7396 107.118 44.7605 106.451 45.4078C105.783 46.0758 105.056 46.4098 104.251 46.4098C103.976 46.4098 103.761 46.4098 103.583 46.3703C103.386 46.3505 103.23 46.311 103.093 46.2715L102.72 46.1539C102.621 46.1144 102.524 46.0749 102.426 46.0552V43.385C102.603 43.5035 102.818 43.6014 103.074 43.6597" fill="white"/>
<path d="M118.215 42.0885C118.018 42.1478 117.803 42.1873 117.567 42.2456C117.331 42.2851 117.077 42.3246 116.821 42.3444C116.566 42.3839 116.31 42.3839 116.075 42.3839C115.465 42.3839 114.955 42.3246 114.484 42.2259C114.032 42.1083 113.64 41.9511 113.325 41.7159C113.011 41.4807 112.776 41.1664 112.618 40.7732C112.461 40.4006 112.383 39.9292 112.383 39.3797V35.6106H115.091V38.85C115.091 39.1445 115.131 39.3995 115.21 39.5764C115.269 39.773 115.387 39.9301 115.543 40.0477C115.7 40.1654 115.876 40.2444 116.112 40.2839C116.348 40.3234 116.623 40.3431 116.937 40.3431C117.408 40.3431 117.761 40.3036 118.036 40.2246C118.311 40.1267 118.527 40.028 118.685 39.9301V35.6106H121.393V46.0552H118.685V41.9323C118.566 41.9718 118.41 42.0302 118.213 42.0894" fill="white"/>
<path d="M128.62 41.1853C128.443 41.2643 128.228 41.3433 127.952 41.3819L127.226 41.5202C126.911 41.5785 126.637 41.6378 126.402 41.7168C126.166 41.7949 125.97 41.8937 125.813 42.0113C125.655 42.1496 125.538 42.3058 125.46 42.4827C125.381 42.6595 125.341 42.875 125.341 43.1507C125.341 43.367 125.381 43.5628 125.44 43.7199C125.518 43.8968 125.617 44.0144 125.754 44.132C125.872 44.2299 126.009 44.3286 126.166 44.3672C126.343 44.4265 126.519 44.4453 126.716 44.4453C126.815 44.4453 126.951 44.4265 127.108 44.4067C127.265 44.387 127.422 44.3475 127.619 44.2882C127.796 44.2092 127.972 44.1311 128.149 44.0135C128.326 43.9147 128.483 43.7585 128.62 43.5816C128.777 43.4047 128.895 43.1893 128.973 42.9136C129.052 42.6586 129.111 42.3642 129.111 42.0104V40.9501C128.953 41.0488 128.777 41.1269 128.62 41.1853ZM131.879 44.7587C131.899 44.9553 131.958 45.1313 132.017 45.23C132.076 45.3674 132.135 45.4464 132.213 45.5048C132.292 45.564 132.351 45.6035 132.449 45.6233V46.0552H129.446L129.289 45.564C129.21 45.3674 129.19 45.1322 129.19 44.8377L128.581 45.4464C128.365 45.6233 128.15 45.7795 127.895 45.9169C127.64 46.0552 127.364 46.1719 127.031 46.2509C126.697 46.329 126.305 46.3685 125.853 46.3685C125.401 46.3685 124.95 46.3092 124.557 46.1719C124.165 46.0345 123.831 45.819 123.537 45.5631C123.262 45.2884 123.026 44.9544 122.869 44.5423C122.711 44.1499 122.633 43.6786 122.633 43.1489C122.633 42.717 122.693 42.3246 122.83 41.9511C122.967 41.5776 123.164 41.2634 123.399 40.9887C123.654 40.7139 123.95 40.4787 124.302 40.3018C124.655 40.1052 125.048 39.9876 125.5 39.9283L128.151 39.536C128.249 39.5162 128.347 39.5162 128.465 39.4776C128.582 39.4579 128.681 39.4184 128.779 39.3393C128.878 39.281 128.956 39.202 129.014 39.1041C129.073 38.9856 129.113 38.8491 129.113 38.6723C129.113 38.4954 129.073 38.3383 129.034 38.2009C128.975 38.0438 128.877 37.9262 128.759 37.8283C128.622 37.7098 128.465 37.6317 128.249 37.5733C128.034 37.5149 127.758 37.4943 127.445 37.4943C127.071 37.4943 126.797 37.5338 126.581 37.5931C126.346 37.6721 126.169 37.7897 126.05 37.9073C125.913 38.0456 125.815 38.2018 125.756 38.3589L125.637 38.9281H122.929C122.929 38.8105 122.948 38.6336 122.987 38.3984C123.027 38.182 123.106 37.9271 123.222 37.6523C123.321 37.3973 123.497 37.1217 123.694 36.8479C123.89 36.5731 124.145 36.3172 124.498 36.082C124.812 35.8656 125.224 35.6699 125.696 35.5325C126.167 35.3952 126.717 35.3161 127.385 35.2964C128.307 35.2964 129.073 35.3952 129.662 35.5711C130.232 35.7678 130.683 36.0227 131.016 36.3172C131.331 36.6315 131.547 36.9655 131.665 37.3381C131.763 37.7107 131.822 38.0842 131.822 38.4577V43.9937C131.822 44.3071 131.841 44.563 131.881 44.7596" fill="white"/>
<path d="M139.454 38.5744C139.375 38.358 139.258 38.182 139.121 38.0447C138.963 37.8875 138.787 37.7897 138.591 37.7107C138.374 37.6523 138.119 37.6128 137.825 37.6128C137.373 37.6128 137.02 37.7107 136.745 37.9271C136.47 38.1434 136.254 38.3984 136.116 38.7118C135.959 39.0458 135.881 39.3995 135.822 39.7721C135.782 40.1447 135.743 40.4985 135.743 40.8324C135.743 41.1664 135.762 41.5399 135.802 41.9125C135.841 42.3049 135.92 42.6389 136.077 42.9531C136.214 43.2674 136.41 43.5421 136.704 43.7387C136.979 43.9551 137.352 44.0521 137.824 44.0521C138.138 44.0521 138.413 43.9928 138.648 43.8555C138.864 43.7378 139.06 43.5807 139.217 43.4038C139.374 43.2072 139.492 43.0115 139.571 42.7951C139.629 42.5985 139.669 42.4028 139.669 42.2259H142.496C142.496 42.4028 142.476 42.6182 142.418 42.8939C142.339 43.1884 142.241 43.4631 142.104 43.7773C141.966 44.0718 141.771 44.3861 141.554 44.6994C141.299 45.0137 141.024 45.2884 140.671 45.5236C140.318 45.7786 139.925 45.9752 139.453 46.1324C138.982 46.2895 138.433 46.3685 137.824 46.3685C137.039 46.3685 136.332 46.2509 135.723 46.0156C135.114 45.7607 134.604 45.4069 134.192 44.9356C133.78 44.4642 133.466 43.895 133.249 43.1884C133.033 42.5015 132.916 41.7168 132.916 40.8324C132.916 39.9481 133.034 39.1436 133.269 38.4568C133.505 37.7888 133.838 37.2007 134.27 36.7293C134.702 36.258 135.213 35.9051 135.822 35.669C136.411 35.414 137.097 35.2964 137.824 35.2964C138.138 35.2964 138.472 35.3359 138.825 35.3754C139.158 35.414 139.493 35.5128 139.826 35.6304C140.159 35.7678 140.474 35.9249 140.788 36.1206C141.082 36.3172 141.358 36.5722 141.612 36.8667C141.847 37.1612 142.044 37.5149 142.202 37.9073C142.359 38.2997 142.457 38.771 142.496 39.3007H139.669C139.61 39.026 139.55 38.771 139.453 38.5744" fill="white"/>
<path d="M151.954 35.6106V37.8085H148.793V46.0543H146.084V37.8085H142.923V35.6106H151.954Z" fill="white"/>
<path d="M159.487 39.3798V35.6097H162.196V46.0543H159.487V41.5785H155.501V46.0543H152.792V35.6097H155.501V39.3798H159.487Z" fill="white"/>
<path d="M166.761 42.0499L170.57 35.6097H173.417V46.0543H170.707V39.7524H170.667L166.976 46.0543H164.013V35.6097H166.721V42.0499H166.761Z" fill="white"/>
<path d="M181.883 35.6106H185.495L181.177 39.949L185.672 46.0543H182.139L179.077 41.6378L177.977 42.7565V46.0543H175.267V35.6106H177.977V39.5755L181.883 35.6106Z" fill="white"/>
</svg>
