<svg width="205" height="67" viewBox="0 0 205 67" fill="none" xmlns="http://www.w3.org/2000/svg">
<path d="M40.6725 24.7353C40.6725 23.6022 39.754 22.6837 38.6209 22.6837C37.4879 22.6837 36.5694 23.6022 36.5694 24.7353C36.5694 25.1258 36.678 25.4903 36.8675 25.8001L30.3707 32.2968C30.0789 32.137 29.744 32.0463 29.3885 32.0463C28.2554 32.0463 27.3369 32.9648 27.3369 34.0979C27.3369 34.4534 27.4276 34.7883 27.5874 35.0801L21.2218 41.4458C20.9111 41.2563 20.5466 41.1477 20.1561 41.1477C19.023 41.1477 18.1045 42.0662 18.1045 43.1992C18.1045 44.3323 19.023 45.2508 20.1561 45.2508C21.1212 45.2508 21.9302 44.5837 22.1484 43.6859H27.3953C27.6135 44.5837 28.4224 45.2508 29.3876 45.2508C30.3528 45.2508 31.1617 44.5837 31.3799 43.6859H36.6268C36.845 44.5837 37.654 45.2508 38.6191 45.2508C39.7522 45.2508 40.6707 44.3323 40.6707 43.1992C40.6707 42.2341 40.0036 41.4251 39.1058 41.2069V35.96C40.0036 35.7418 40.6707 34.9329 40.6707 33.9677C40.6707 33.0025 40.0036 32.1936 39.1058 31.9754V26.7284C40.0036 26.5103 40.6707 25.7013 40.6707 24.7362L40.6725 24.7353ZM38.1352 41.2069C37.3936 41.3874 36.8091 41.971 36.6286 42.7135H31.3817C31.326 42.4855 31.2327 42.2718 31.1079 42.0805L37.6154 35.7544C37.7761 35.8451 37.9512 35.9151 38.1352 35.96V41.2069ZM21.9104 42.1344L28.2447 35.8002C28.4063 35.9088 28.5831 35.995 28.7726 36.0552V41.2437C28.0929 41.4574 27.5668 42.0159 27.3971 42.7144H22.1502C22.0999 42.507 22.0182 42.3122 21.9104 42.1353V42.1344ZM38.1352 31.9745C37.2374 32.1927 36.5703 33.0016 36.5703 33.9668C36.5703 34.3807 36.6933 34.7659 36.9043 35.0882L30.3977 41.4134C30.1983 41.3003 29.9784 41.2204 29.7449 41.1791V36.1171C30.7083 35.9483 31.4401 35.1088 31.4401 34.097C31.4401 33.6732 31.3117 33.2791 31.0908 32.9522L37.5552 26.4869C37.7321 26.5947 37.9269 26.6764 38.1343 26.7267V31.9736L38.1352 31.9745Z" fill="white"/>
<path d="M55.5873 24.6868L47.2706 43.1687H50.8081L52.6298 38.8914H61.8703L63.7181 43.1687H67.3085L58.9649 24.6868H55.5855H55.5873ZM53.7916 36.1979L57.2501 28.1192L60.7355 36.1979H53.7916Z" fill="white"/>
<path d="M72.2233 38.3635V29.0691H68.9228V43.1687H71.9593L79.7211 33.8743V43.1687H83.0215V29.0691H80.012L72.2233 38.3635Z" fill="white"/>
<path d="M98.0046 29.8089C96.9218 29.211 95.6945 28.9111 94.3217 28.9111C93.3538 28.9111 92.4686 29.079 91.6686 29.413C90.8677 29.7479 90.1944 30.2489 89.6485 30.9178V29.07H86.5069V48.2909H89.8074V41.453C90.9162 42.7207 92.421 43.3537 94.3226 43.3537C95.6954 43.3537 96.9236 43.0547 98.0055 42.4558C99.0883 41.8579 99.9368 41.0085 100.554 39.9078C101.169 38.8079 101.477 37.5447 101.477 36.1189C101.477 34.6932 101.169 33.4353 100.554 32.3435C99.9377 31.2527 99.0883 30.4078 98.0055 29.8089H98.0046ZM96.9488 39.3134C96.165 40.1233 95.1666 40.5282 93.9518 40.5282C93.1599 40.5282 92.447 40.3477 91.8131 39.9868C91.1793 39.6259 90.6783 39.1114 90.3084 38.4425C89.9385 37.7736 89.7535 36.9997 89.7535 36.1189C89.7535 35.2381 89.9385 34.4642 90.3084 33.7953C90.6783 33.1264 91.1793 32.612 91.8131 32.2511C92.447 31.8901 93.1599 31.7097 93.9518 31.7097C95.1666 31.7097 96.165 32.1146 96.9488 32.9244C97.7317 33.7343 98.124 34.7991 98.124 36.1189C98.124 37.4387 97.7317 38.5045 96.9488 39.3134Z" fill="white"/>
<path d="M114.023 30.4024C112.922 29.4085 111.334 28.9111 109.257 28.9111C108.095 28.9111 106.996 29.061 105.957 29.36C104.918 29.6599 104.029 30.0909 103.29 30.6538L104.584 33.0564C105.112 32.6165 105.759 32.2735 106.524 32.0266C107.29 31.7806 108.068 31.6567 108.861 31.6567C110.023 31.6567 110.898 31.9206 111.488 32.4486C112.078 32.9765 112.373 33.7334 112.373 34.7192V34.9302H108.729C106.705 34.9302 105.221 35.3127 104.28 36.0785C103.339 36.8444 102.868 37.8607 102.868 39.1276C102.868 39.9374 103.084 40.6638 103.515 41.3057C103.946 41.9486 104.558 42.4505 105.35 42.8105C106.142 43.1714 107.066 43.3519 108.122 43.3519C109.179 43.3519 110.08 43.1885 110.828 42.8635C111.576 42.5384 112.153 42.0671 112.558 41.4512V43.1669H115.673V34.9033C115.673 32.8966 115.123 31.3963 114.023 30.4015V30.4024ZM112.373 38.7586C112.109 39.4625 111.655 40.0039 111.012 40.3827C110.37 40.7616 109.635 40.9502 108.808 40.9502C107.981 40.9502 107.303 40.7742 106.828 40.4222C106.353 40.0703 106.115 39.5953 106.115 38.9965C106.115 37.7467 107.066 37.1218 108.966 37.1218H112.372V38.7586H112.373Z" fill="white"/>
<path d="M137.846 28.1587C136.156 26.759 133.754 25.9806 130.638 25.8216V23.947H127.47V25.8216C124.354 25.9797 121.947 26.759 120.248 28.1587C118.55 29.5584 117.7 31.4726 117.7 33.9013C117.7 36.3299 118.55 38.2405 120.248 39.6303C121.947 41.0211 124.354 41.795 127.47 41.9539V43.9076H130.638V41.9539C133.754 41.8309 136.156 41.0651 137.846 39.6573C139.536 38.2495 140.381 36.3308 140.381 33.9013C140.381 31.4717 139.536 29.5584 137.846 28.1587ZM127.47 39.2613C125.392 39.0854 123.804 38.5484 122.704 37.6506C121.604 36.7528 121.054 35.503 121.054 33.9013C121.054 30.6448 123.192 28.8581 127.47 28.5412V39.2604V39.2613ZM135.443 37.6641C134.352 38.5709 132.75 39.1033 130.638 39.2613V28.5421C132.733 28.683 134.33 29.202 135.43 30.0998C136.53 30.9977 137.08 32.2564 137.08 33.8752C137.08 35.494 136.534 36.7573 135.443 37.6641Z" fill="white"/>
<path d="M143.514 34.5082C143.443 35.899 143.36 36.9683 143.264 37.7162C143.167 38.465 142.951 39.1069 142.617 39.6438C142.282 40.1807 141.781 40.4492 141.112 40.4492C140.936 40.4492 140.725 40.4231 140.478 40.3702L140.32 43.1427C141.042 43.3366 141.649 43.4327 142.142 43.4327C143.198 43.4327 144.03 43.0673 144.637 42.3373C145.244 41.6074 145.675 40.6126 145.931 39.3538C146.186 38.096 146.358 36.5337 146.446 34.6671L146.578 31.8686H151.859V43.1687H155.159V29.07H143.753L143.515 34.5091L143.514 34.5082Z" fill="white"/>
<path d="M169.005 29.835C167.861 29.2191 166.567 28.9111 165.124 28.9111C163.681 28.9111 162.414 29.2191 161.27 29.835C160.125 30.4509 159.232 31.3047 158.59 32.3956C157.947 33.4874 157.626 34.7282 157.626 36.118C157.626 37.5079 157.947 38.7541 158.59 39.8539C159.232 40.9538 160.125 41.8121 161.27 42.428C162.414 43.0439 163.698 43.3519 165.124 43.3519C166.55 43.3519 167.861 43.0439 169.005 42.428C170.149 41.8121 171.043 40.9538 171.685 39.8539C172.327 38.7541 172.649 37.5088 172.649 36.118C172.649 34.7273 172.327 33.4865 171.685 32.3956C171.043 31.3047 170.149 30.4509 169.005 29.835ZM168.135 39.3134C167.343 40.1233 166.339 40.5282 165.125 40.5282C163.911 40.5282 162.911 40.1233 162.128 39.3134C161.344 38.5036 160.953 37.4387 160.953 36.1189C160.953 34.7991 161.344 33.7343 162.128 32.9244C162.911 32.1146 163.91 31.7097 165.125 31.7097C166.34 31.7097 167.343 32.1146 168.135 32.9244C168.926 33.7343 169.322 34.7991 169.322 36.1189C169.322 37.4387 168.926 38.5045 168.135 39.3134Z" fill="white"/>
<path d="M173.167 29.0691V31.8686H178.13V43.1687H181.431V31.8686H186.368V29.0691H173.167Z" fill="white"/>
</svg>
